<?xml version="1.0" encoding="UTF-8" standalone="no"?>
<svg
   xmlns:dc="http://purl.org/dc/elements/1.1/"
   xmlns:cc="http://creativecommons.org/ns#"
   xmlns:rdf="http://www.w3.org/1999/02/22-rdf-syntax-ns#"
   xmlns:svg="http://www.w3.org/2000/svg"
   xmlns="http://www.w3.org/2000/svg"
   xmlns:sodipodi="http://sodipodi.sourceforge.net/DTD/sodipodi-0.dtd"
   xmlns:inkscape="http://www.inkscape.org/namespaces/inkscape"
   version="1.1"
   width="128"
   height="128"
   xml:space="preserve"
   id="svg2"
   inkscape:version="0.91 r13725"
   sodipodi:docname="Kubuntu_logo.svg"><metadata
     id="metadata18"><rdf:RDF><cc:Work
         rdf:about=""><dc:format>image/svg+xml</dc:format><dc:type
           rdf:resource="http://purl.org/dc/dcmitype/StillImage" /><dc:title></dc:title></cc:Work></rdf:RDF></metadata><defs
     id="defs16" /><sodipodi:namedview
     pagecolor="#ffffff"
     bordercolor="#666666"
     borderopacity="1"
     objecttolerance="10"
     gridtolerance="10"
     guidetolerance="10"
     inkscape:pageopacity="0"
     inkscape:pageshadow="2"
     inkscape:window-width="1366"
     inkscape:window-height="719"
     id="namedview14"
     showgrid="false"
     fit-margin-top="0"
     fit-margin-left="0"
     fit-margin-right="0"
     fit-margin-bottom="0"
     inkscape:zoom="2.36"
     inkscape:cx="50.009209"
     inkscape:cy="49.974932"
     inkscape:window-x="0"
     inkscape:window-y="0"
     inkscape:window-maximized="1"
     inkscape:current-layer="svg2" /><path
     d="M 127.99288,64.030945 C 128.38966,89.201231 112.16004,113.47532 88.903546,123.0006 66.056636,132.89715 37.68039,127.80164 19.850841,110.36424 1.7921825,93.579785 -4.799503,65.925758 3.6314548,42.765511 11.783385,18.760279 35.350901,1.0716878 60.706491,0.12082582 85.358115,-1.4719692 109.98414,12.819785 120.99162,34.904598 c 4.60778,8.961953 7.01406,19.037749 7.00126,29.126347 z"
     id="path4"
     inkscape:connector-curvature="0"
     style="fill:#0079c1" /><path
     d="M 43.043334,86.896729 C 43.7601,71.162099 44.489665,55.440273 45.21923,39.705645 40.393861,35.314287 35.568491,30.92293 30.75592,26.531573 c -2.278291,0.23045 -3.583829,3.111078 -5.43974,4.468174 -2.0991,1.446715 -3.340641,3.53357 -1.139146,5.556411 2.163097,3.571978 4.338993,7.143957 6.50209,10.715936 -2.329489,3.290317 -2.0991,8.718699 -7.193257,8.30901 -3.622227,0.883392 -7.436445,1.293082 -10.949877,2.483741 -0.314865,3.431148 -0.325105,7.092746 0,10.523894 4.665377,1.574743 9.63154,2.419728 14.418512,3.712809 0.396781,4.365752 5.43974,8.373025 1.228741,11.996215 -1.945507,3.200697 -4.377391,6.196549 -6.015713,9.538078 2.201495,2.650177 4.774172,5.236341 7.436445,7.451219 2.700671,-1.869202 4.684577,-5.005886 7.103661,-7.374403 2.1119,-2.34291 4.223799,-4.673018 6.348498,-7.015928 z"
     id="path6"
     inkscape:connector-curvature="0"
     style="fill:#ffffff" /><path
     d="m 54.02521,34.648542 c 13.477757,8.2578 26.942715,16.528402 40.420472,24.786202 6.322898,-1.382701 12.645798,-2.778206 18.968698,-4.160907 0.98555,-2.06125 -0.78076,-4.673018 -0.98556,-6.964718 -0.14079,-2.534952 -1.27993,-4.685821 -4.147,-3.85364 -4.1854,0 -8.357999,0 -12.5434,0 -1.599923,-3.712809 -6.348497,-6.337381 -3.366239,-10.459879 1.126346,-3.571979 2.777467,-7.041535 3.583829,-10.651922 -2.777468,-2.061249 -5.887719,-3.968865 -8.997971,-5.479594 -3.76302,3.162289 -7.065263,6.964718 -10.649092,10.383063 -3.942212,-1.920419 -9.983524,0.307267 -10.89228,-5.172327 -1.727918,-3.328726 -3.020656,-6.964718 -5.017361,-10.101401 -3.404637,0.499309 -6.962868,1.357095 -10.226712,2.483741 0.153593,3.917653 1.599924,7.912124 2.265492,11.855383 0.524775,2.445333 1.062349,4.903469 1.587124,7.348802 z"
     id="path8"
     inkscape:connector-curvature="0"
     style="fill:#ffffff" /><path
     d="m 93.65212,70.573171 c -13.592952,7.464027 -27.185903,14.915251 -40.778855,22.366475 -1.651121,6.222156 -3.289443,12.444314 -4.940564,18.679274 1.331136,1.8564 4.479786,1.54913 6.578886,2.48374 2.30389,1.08823 4.735774,1.12664 5.388543,-1.79239 2.009504,-3.6616 4.019008,-7.3232 6.028512,-10.9848 4.019009,0.37128 8.613989,-2.534949 10.802685,2.08686 2.572677,2.68858 4.82537,5.81246 7.615637,8.24499 3.123051,-1.43391 6.297299,-3.2519 9.113165,-5.23634 -0.959954,-4.82665 -2.700671,-9.56368 -3.967811,-14.351924 3.57103,-2.52215 4.530984,-8.885136 9.765934,-7.054337 3.750218,0.128028 7.564438,0.691351 11.276268,0.4609 1.19034,-3.239106 2.15029,-6.759873 2.73906,-10.165416 -2.96945,-1.433912 -6.66848,-1.613151 -9.91952,-2.560557 -3.23825,-0.716956 -6.476494,-1.446715 -9.70194,-2.176475 z"
     id="path10"
     inkscape:connector-curvature="0"
     style="fill:#ffffff" /><path
     d="M 94.893661,64.030945 C 95.264843,79.675955 81.991876,94.002277 66.376621,94.834458 50.799764,96.409202 35.504494,84.259354 33.469391,68.742373 30.781519,53.571066 41.302617,37.644395 56.277903,34.110825 c 14.847291,-4.17371 31.742485,4.724229 36.734247,19.306608 1.241541,3.392739 1.881511,7.003126 1.881511,10.613512 z"
     id="path12"
     inkscape:connector-curvature="0"
     style="fill:#0079c1" /></svg>