<?xml version="1.0" encoding="UTF-8" standalone="no"?>
<svg
   xmlns:dc="http://purl.org/dc/elements/1.1/"
   xmlns:cc="http://creativecommons.org/ns#"
   xmlns:rdf="http://www.w3.org/1999/02/22-rdf-syntax-ns#"
   xmlns:svg="http://www.w3.org/2000/svg"
   xmlns="http://www.w3.org/2000/svg"
   xmlns:sodipodi="http://sodipodi.sourceforge.net/DTD/sodipodi-0.dtd"
   xmlns:inkscape="http://www.inkscape.org/namespaces/inkscape"
   version="1.1"
   width="128.00011"
   height="128"
   id="svg2"
   inkscape:version="0.91 r13725"
   sodipodi:docname="Lubuntu_logo.svg">
  <metadata
     id="metadata23">
    <rdf:RDF>
      <cc:Work
         rdf:about="">
        <dc:format>image/svg+xml</dc:format>
        <dc:type
           rdf:resource="http://purl.org/dc/dcmitype/StillImage" />
        <dc:title />
      </cc:Work>
    </rdf:RDF>
  </metadata>
  <defs
     id="defs21" />
  <sodipodi:namedview
     pagecolor="#ffffff"
     bordercolor="#666666"
     borderopacity="1"
     objecttolerance="10"
     gridtolerance="10"
     guidetolerance="10"
     inkscape:pageopacity="0"
     inkscape:pageshadow="2"
     inkscape:window-width="1366"
     inkscape:window-height="719"
     id="namedview19"
     showgrid="false"
     fit-margin-top="0"
     fit-margin-left="0"
     fit-margin-right="0"
     fit-margin-bottom="0"
     inkscape:zoom="1.8969222"
     inkscape:cx="62.038809"
     inkscape:cy="64.600557"
     inkscape:window-x="0"
     inkscape:window-y="0"
     inkscape:window-maximized="1"
     inkscape:current-layer="svg2" />
  <circle
     style="opacity:0.98000004;fill:#ffffff;fill-opacity:1;fill-rule:nonzero;stroke:none;stroke-width:0.375;stroke-linecap:butt;stroke-linejoin:miter;stroke-miterlimit:4;stroke-dasharray:none;stroke-dashoffset:0;stroke-opacity:1"
     id="path3333"
     cx="64"
     cy="64"
     r="64" />
  <path
     d="M 63.9999,0 C 28.6505,0 0,28.66197 0,64.00742 0,64.8285 0.013,65.64331 0.044,66.4569 20.4875,52.02938 55.3479,28.25564 63.9855,27.62974 c 2.863,-3.626 12.6401,-6.50806 14.4215,-6.44446 l -5.1037,6.38613 c 0,0 -0.1618,6.52812 -2.0706,7.80045 17.819,11.90698 26.371,54.72879 30.0096,80.67226 16.202,-11.61187 26.7578,-30.58441 26.7578,-52.0367 C 128.0101,28.66197 99.3588,0 64.0076,0 Z M 60.8356,57.8254 C 56.0423,57.96841 46.208,72.29011 35.0985,87.62738 29.7598,94.9976 24.2437,102.68504 19.1605,109.67268 30.7088,121.01087 46.5365,128 63.9999,128 c 12.5186,0 24.199,-3.58623 34.0633,-9.79791 C 90.4733,94.99877 76.0415,57.94214 61.273,57.85442 c -0.144,-0.0253 -0.2828,-0.0338 -0.4374,-0.0292 z M 24.9495,63.67205 C 20.5594,63.63885 9.6953,67.41383 0.379,71.00593 1.326,79.71286 4.0101,87.89389 8.0928,95.19454 9.9634,92.3683 11.916,89.4525 13.8527,86.60681 21.2497,75.73766 28.4116,66.1366 26.7285,64.15327 26.4278,63.8215 25.8121,63.67864 24.9495,63.67212 Z m 11.5489,5.46761 c -3.5431,0.5369 -16.3409,16.48662 -26.5099,29.21877 1.6533,2.59363 3.4839,5.05605 5.4828,7.37759 10.4523,-17.11312 22.1521,-35.76909 21.5229,-36.53804 -0.1352,-0.0636 -0.3049,-0.0873 -0.4958,-0.0583 z"
     style="fill:#0068c8;fill-rule:evenodd"
     id="path4"
     inkscape:connector-curvature="0" />
</svg>
