<?xml version="1.0" encoding="UTF-8" standalone="no"?>
<!-- Created with Inkscape (http://www.inkscape.org/) -->

<svg
   xmlns:dc="http://purl.org/dc/elements/1.1/"
   xmlns:cc="http://creativecommons.org/ns#"
   xmlns:rdf="http://www.w3.org/1999/02/22-rdf-syntax-ns#"
   xmlns:svg="http://www.w3.org/2000/svg"
   xmlns="http://www.w3.org/2000/svg"
   version="1.1"
   width="85.038651"
   height="56.692432"
   viewBox="0 0 68.030991 45.354"
   id="svg2"
   xml:space="preserve"><metadata
     id="metadata1018"><rdf:RDF><cc:Work
         rdf:about=""><dc:format>image/svg+xml</dc:format><dc:type
           rdf:resource="http://purl.org/dc/dcmitype/StillImage" /><dc:title></dc:title></cc:Work></rdf:RDF></metadata><defs
     id="defs1016" /><g
     transform="matrix(0,-1,1,0,102.82569,100.49743)"
     id="breadboard"><g
       transform="translate(0.2835,0)"
       id="centered"><g
         id="esp-placeholder"
         style="display:none"><rect
           width="45.354"
           height="68.030998"
           x="13.323"
           y="0"
           id="rect26"
           style="opacity:0.1;fill:#ffffff" /></g></g><g
       transform="translate(41.820435,-102.8257)"
       id="g129"><g
         transform="translate(13.323,0)"
         id="ESP8266"><g
           id="pcb"><path
             d="M 45.35,23.244 V 0 H 0 v 23.243 c 0.47,0 0.851,0.381 0.851,0.851 0,0.47 -0.381,0.85 -0.851,0.85 v 3.968 c 0.47,0 0.851,0.381 0.851,0.851 0,0.47 -0.381,0.85 -0.851,0.85 v 3.968 c 0.47,0 0.851,0.381 0.851,0.851 0,0.47 -0.381,0.85 -0.851,0.85 v 3.968 c 0.47,0 0.851,0.381 0.851,0.851 0,0.47 -0.381,0.85 -0.851,0.85 v 3.968 c 0.47,0 0.851,0.381 0.851,0.85 0,0.47 -0.381,0.851 -0.851,0.851 v 3.968 c 0.47,0 0.851,0.381 0.851,0.85 0,0.469 -0.381,0.851 -0.851,0.851 v 3.968 c 0.47,0 0.851,0.381 0.851,0.85 0,0.469 -0.381,0.851 -0.851,0.851 v 3.968 c 0.47,0 0.851,0.381 0.851,0.85 0,0.469 -0.381,0.852 -0.851,0.852 V 68.03 H 7.682 C 7.674,67.982 7.653,67.939 7.653,67.889 c 0,-0.47 0.381,-0.851 0.851,-0.851 0.47,0 0.85,0.381 0.85,0.851 0,0.05 -0.02,0.094 -0.029,0.141 h 4.025 c -0.008,-0.048 -0.029,-0.091 -0.029,-0.141 0,-0.47 0.381,-0.851 0.85,-0.851 0.47,0 0.851,0.381 0.851,0.851 0,0.05 -0.02,0.094 -0.029,0.141 h 4.025 c -0.008,-0.048 -0.029,-0.091 -0.029,-0.141 0,-0.47 0.381,-0.851 0.85,-0.851 0.469,0 0.851,0.381 0.851,0.851 0,0.05 -0.02,0.094 -0.029,0.141 h 4.025 c -0.008,-0.048 -0.029,-0.091 -0.029,-0.141 0,-0.47 0.381,-0.851 0.85,-0.851 0.469,0 0.851,0.381 0.851,0.851 0,0.05 -0.02,0.094 -0.029,0.141 h 4.025 c -0.008,-0.048 -0.029,-0.091 -0.029,-0.141 0,-0.47 0.381,-0.851 0.85,-0.851 0.469,0 0.851,0.381 0.851,0.851 0,0.05 -0.02,0.094 -0.029,0.141 h 4.025 c -0.008,-0.048 -0.029,-0.091 -0.029,-0.141 0,-0.47 0.381,-0.851 0.851,-0.851 0.47,0 0.851,0.381 0.851,0.851 0,0.05 -0.02,0.094 -0.029,0.141 h 7.679 v -3.404 c -0.468,-0.002 -0.846,-0.381 -0.846,-0.85 0,-0.469 0.379,-0.847 0.846,-0.85 v -3.97 c -0.468,-0.002 -0.846,-0.381 -0.846,-0.85 0,-0.469 0.379,-0.847 0.846,-0.85 v -3.97 c -0.468,-0.002 -0.846,-0.381 -0.846,-0.85 0,-0.469 0.379,-0.847 0.846,-0.85 v -3.97 c -0.468,-0.002 -0.846,-0.381 -0.846,-0.85 0,-0.469 0.379,-0.847 0.846,-0.85 v -3.97 c -0.468,-0.002 -0.846,-0.381 -0.846,-0.85 0,-0.469 0.379,-0.847 0.846,-0.85 v -3.97 c -0.468,-0.002 -0.846,-0.381 -0.846,-0.85 0,-0.468 0.379,-0.847 0.846,-0.85 v -3.97 c -0.468,-0.002 -0.846,-0.381 -0.846,-0.85 0,-0.468 0.379,-0.847 0.846,-0.85 v -3.97 c -0.468,-0.002 -0.846,-0.381 -0.846,-0.85 0,-0.469 0.383,-0.84 0.851,-0.842 z M 2.835,64.628 c -0.47,0 -0.851,-0.381 -0.851,-0.851 0,-0.47 0.381,-0.85 0.851,-0.85 0.47,0 0.85,0.381 0.85,0.85 0,0.469 -0.38,0.851 -0.85,0.851 z m 0,-5.67 c -0.47,0 -0.851,-0.381 -0.851,-0.851 0,-0.47 0.381,-0.85 0.851,-0.85 0.47,0 0.85,0.381 0.85,0.85 0,0.469 -0.38,0.851 -0.85,0.851 z m 0,-5.669 c -0.47,0 -0.851,-0.381 -0.851,-0.851 0,-0.47 0.381,-0.85 0.851,-0.85 0.47,0 0.85,0.381 0.85,0.85 0,0.469 -0.38,0.851 -0.85,0.851 z m 0,-5.669 c -0.47,0 -0.851,-0.381 -0.851,-0.851 0,-0.47 0.381,-0.85 0.851,-0.85 0.47,0 0.85,0.381 0.85,0.85 0,0.471 -0.38,0.851 -0.85,0.851 z m 0,-5.669 c -0.47,0 -0.851,-0.381 -0.851,-0.85 0,-0.47 0.381,-0.851 0.851,-0.851 0.47,0 0.85,0.381 0.85,0.851 0,0.47 -0.38,0.85 -0.85,0.85 z m 0,-5.669 c -0.47,0 -0.851,-0.381 -0.851,-0.85 0,-0.469 0.381,-0.851 0.851,-0.851 0.47,0 0.85,0.381 0.85,0.851 0,0.47 -0.38,0.85 -0.85,0.85 z m 0,-5.669 c -0.47,0 -0.851,-0.381 -0.851,-0.85 0,-0.469 0.381,-0.851 0.851,-0.851 0.47,0 0.85,0.381 0.85,0.851 0,0.47 -0.38,0.85 -0.85,0.85 z m 0,-5.669 c -0.47,0 -0.851,-0.381 -0.851,-0.85 0,-0.469 0.381,-0.851 0.851,-0.851 0.47,0 0.85,0.381 0.85,0.851 0,0.47 -0.38,0.85 -0.85,0.85 z m 39.684,39.683 c -0.47,0 -0.85,-0.381 -0.85,-0.851 0,-0.47 0.381,-0.851 0.85,-0.851 0.469,0 0.851,0.381 0.851,0.851 0,0.47 -0.381,0.851 -0.851,0.851 z m 0,-5.669 c -0.47,0 -0.85,-0.381 -0.85,-0.851 0,-0.47 0.381,-0.851 0.85,-0.851 0.469,0 0.851,0.381 0.851,0.851 0,0.47 -0.381,0.851 -0.851,0.851 z m 0,-5.669 c -0.47,0 -0.85,-0.381 -0.85,-0.851 0,-0.47 0.381,-0.85 0.85,-0.85 0.469,0 0.851,0.381 0.851,0.85 0,0.469 -0.381,0.851 -0.851,0.851 z m 0,-5.669 c -0.47,0 -0.85,-0.381 -0.85,-0.851 0,-0.47 0.381,-0.85 0.85,-0.85 0.469,0 0.851,0.381 0.851,0.85 0,0.469 -0.381,0.851 -0.851,0.851 z m 0,-5.669 c -0.47,0 -0.85,-0.381 -0.85,-0.851 0,-0.47 0.381,-0.85 0.85,-0.85 0.469,0 0.851,0.381 0.851,0.85 0,0.469 -0.381,0.851 -0.851,0.851 z m 0,-5.669 c -0.47,0 -0.85,-0.381 -0.85,-0.851 0,-0.47 0.381,-0.85 0.85,-0.85 0.469,0 0.851,0.381 0.851,0.85 0,0.47 -0.381,0.851 -0.851,0.851 z m 0,-5.669 c -0.47,0 -0.85,-0.381 -0.85,-0.85 0,-0.47 0.381,-0.851 0.85,-0.851 0.469,0 0.851,0.381 0.851,0.851 0,0.469 -0.381,0.85 -0.851,0.85 z m 0,-5.669 c -0.47,0 -0.85,-0.381 -0.85,-0.85 0,-0.469 0.381,-0.851 0.85,-0.851 0.469,0 0.851,0.381 0.851,0.851 0,0.47 -0.381,0.85 -0.851,0.85 z"
             id="path133" /></g><g
           id="g135"
           style="fill:#9a916c"><g
             id="g137"><path
               d="m 0,22.435 v 0.808 c 0.47,0 0.851,0.381 0.851,0.851 0,0.47 -0.381,0.85 -0.851,0.85 v 0.808 H 4.479 V 22.435 H 0 z m 2.835,2.509 c -0.47,0 -0.851,-0.381 -0.851,-0.85 0,-0.469 0.381,-0.851 0.851,-0.851 0.47,0 0.85,0.381 0.85,0.851 0,0.47 -0.38,0.85 -0.85,0.85 z"
               id="pad1-rst" /><path
               d="m 0,28.104 v 0.808 c 0.47,0 0.851,0.381 0.851,0.851 0,0.47 -0.381,0.85 -0.851,0.85 v 0.808 H 4.479 V 28.104 H 0 z m 2.835,2.509 c -0.47,0 -0.851,-0.381 -0.851,-0.85 0,-0.469 0.381,-0.851 0.851,-0.851 0.47,0 0.85,0.381 0.85,0.851 0,0.47 -0.38,0.85 -0.85,0.85 z"
               id="pad2-adc" /><path
               d="m 0,33.773 v 0.808 c 0.47,0 0.851,0.381 0.851,0.851 0,0.47 -0.381,0.85 -0.851,0.85 V 37.09 H 4.479 V 33.773 H 0 z m 2.835,2.509 c -0.47,0 -0.851,-0.381 -0.851,-0.85 0,-0.469 0.381,-0.851 0.851,-0.851 0.47,0 0.85,0.381 0.85,0.851 0,0.47 -0.38,0.85 -0.85,0.85 z"
               id="pad3-en" /><path
               d="m 0,39.443 v 0.808 c 0.47,0 0.851,0.381 0.851,0.851 0,0.47 -0.381,0.85 -0.851,0.85 V 42.76 H 4.479 V 39.443 H 0 z m 2.835,2.508 c -0.47,0 -0.851,-0.381 -0.851,-0.85 0,-0.47 0.381,-0.851 0.851,-0.851 0.47,0 0.85,0.381 0.85,0.851 0,0.47 -0.38,0.85 -0.85,0.85 z"
               id="pad4-gpio16" /><path
               d="m 0,45.112 v 0.808 c 0.47,0 0.851,0.381 0.851,0.85 0,0.47 -0.381,0.851 -0.851,0.851 v 0.808 H 4.479 V 45.112 H 0 z m 2.835,2.508 c -0.47,0 -0.851,-0.381 -0.851,-0.851 0,-0.47 0.381,-0.85 0.851,-0.85 0.47,0 0.85,0.381 0.85,0.85 0,0.471 -0.38,0.851 -0.85,0.851 z"
               id="pad5-gpio14" /><path
               d="m 0,50.78 v 0.808 c 0.47,0 0.851,0.381 0.851,0.85 0,0.469 -0.381,0.851 -0.851,0.851 v 0.808 H 4.479 V 50.78 H 0 z m 2.835,2.509 c -0.47,0 -0.851,-0.381 -0.851,-0.851 0,-0.47 0.381,-0.85 0.851,-0.85 0.47,0 0.85,0.381 0.85,0.85 0,0.469 -0.38,0.851 -0.85,0.851 z"
               id="pad6-gpio12" /><path
               d="m 0,56.449 v 0.808 c 0.47,0 0.851,0.381 0.851,0.85 0,0.469 -0.381,0.851 -0.851,0.851 v 0.808 H 4.479 V 56.449 H 0 z m 2.835,2.509 c -0.47,0 -0.851,-0.381 -0.851,-0.851 0,-0.47 0.381,-0.85 0.851,-0.85 0.47,0 0.85,0.381 0.85,0.85 0,0.469 -0.38,0.851 -0.85,0.851 z"
               id="pad7-gpio13" /><path
               d="m 0,62.118 v 0.808 c 0.47,0 0.851,0.381 0.851,0.85 0,0.469 -0.381,0.852 -0.851,0.852 v 0.808 H 4.479 V 62.119 H 0 z m 2.835,2.51 c -0.47,0 -0.851,-0.381 -0.851,-0.851 0,-0.47 0.381,-0.85 0.851,-0.85 0.47,0 0.85,0.381 0.85,0.85 0,0.469 -0.38,0.851 -0.85,0.851 z"
               id="pad8-vcc" /></g><g
             id="pads-bot"><path
               d="m 6.846,66.387 v 1.644 H 7.683 C 7.675,67.983 7.654,67.939 7.654,67.889 c 0,-0.47 0.381,-0.851 0.851,-0.851 0.47,0 0.85,0.381 0.85,0.851 0,0.05 -0.02,0.094 -0.029,0.142 h 0.837 V 66.387 H 6.846 z"
               id="pad9-cso" /><path
               d="m 12.515,66.387 v 1.644 h 0.837 c -0.008,-0.048 -0.029,-0.092 -0.029,-0.142 0,-0.47 0.381,-0.851 0.85,-0.851 0.47,0 0.851,0.381 0.851,0.851 0,0.05 -0.02,0.094 -0.029,0.142 h 0.837 v -1.644 h -3.317 z"
               id="pad10-miso" /><path
               d="m 18.183,66.387 v 1.644 h 0.837 c -0.008,-0.048 -0.029,-0.092 -0.029,-0.142 0,-0.47 0.381,-0.851 0.85,-0.851 0.469,0 0.851,0.381 0.851,0.851 0,0.05 -0.02,0.094 -0.029,0.142 H 21.5 v -1.644 h -3.317 z"
               id="pad11-gpio9" /><path
               d="m 23.852,66.387 v 1.644 h 0.837 c -0.008,-0.048 -0.029,-0.092 -0.029,-0.142 0,-0.47 0.381,-0.851 0.85,-0.851 0.469,0 0.851,0.381 0.851,0.851 0,0.05 -0.02,0.094 -0.029,0.142 h 0.837 v -1.644 h -3.317 z"
               id="pad12-gpio10" /><path
               d="m 29.521,66.387 v 1.644 h 0.837 c -0.008,-0.048 -0.029,-0.092 -0.029,-0.142 0,-0.47 0.381,-0.851 0.85,-0.851 0.469,0 0.851,0.381 0.851,0.851 0,0.05 -0.02,0.094 -0.029,0.142 h 0.837 v -1.644 h -3.317 z"
               id="pad13-mosi" /><path
               d="m 35.19,66.387 v 1.644 h 0.837 c -0.008,-0.048 -0.029,-0.092 -0.029,-0.142 0,-0.47 0.381,-0.851 0.851,-0.851 0.47,0 0.851,0.381 0.851,0.851 0,0.05 -0.02,0.094 -0.029,0.142 h 0.837 V 66.387 H 35.19 z"
               id="pad14-sclk" /></g><g
             id="g154"><path
               d="m 44.503,63.776 c 0,-0.47 0.381,-0.851 0.851,-0.851 v -0.808 h -4.479 v 3.317 h 4.479 v -0.808 c -0.47,10e-4 -0.851,-0.38 -0.851,-0.85 z m -1.984,0.851 c -0.47,0 -0.85,-0.381 -0.85,-0.851 0,-0.47 0.381,-0.851 0.85,-0.851 0.469,0 0.851,0.381 0.851,0.851 0,0.47 -0.381,0.851 -0.851,0.851 z"
               id="pad15-gnd" /><path
               d="m 44.503,58.107 c 0,-0.47 0.381,-0.851 0.851,-0.851 v -0.808 h -4.479 v 3.317 h 4.479 v -0.808 c -0.47,10e-4 -0.851,-0.38 -0.851,-0.85 z m -1.984,0.851 c -0.47,0 -0.85,-0.381 -0.85,-0.851 0,-0.47 0.381,-0.851 0.85,-0.851 0.469,0 0.851,0.381 0.851,0.851 0,0.47 -0.381,0.851 -0.851,0.851 z"
               id="pad16-gpio15" /><path
               d="m 44.503,52.438 c 0,-0.47 0.381,-0.85 0.851,-0.85 V 50.78 h -4.479 v 3.317 h 4.479 v -0.808 c -0.47,0 -0.851,-0.381 -0.851,-0.851 z m -1.984,0.851 c -0.47,0 -0.85,-0.381 -0.85,-0.851 0,-0.47 0.381,-0.85 0.85,-0.85 0.469,0 0.851,0.381 0.851,0.85 0,0.469 -0.381,0.851 -0.851,0.851 z"
               id="pad17-gpio2" /><path
               d="m 44.503,46.769 c 0,-0.47 0.381,-0.85 0.851,-0.85 v -0.808 h -4.479 v 3.317 h 4.479 V 47.62 c -0.47,0 -0.851,-0.381 -0.851,-0.851 z m -1.984,0.851 c -0.47,0 -0.85,-0.381 -0.85,-0.851 0,-0.47 0.381,-0.85 0.85,-0.85 0.469,0 0.851,0.381 0.851,0.85 0,0.469 -0.381,0.851 -0.851,0.851 z"
               id="pad18-gpio0" /><path
               d="m 44.503,41.1 c 0,-0.47 0.381,-0.85 0.851,-0.85 v -0.808 h -4.479 v 3.317 h 4.479 v -0.808 c -0.47,0 -0.851,-0.381 -0.851,-0.851 z m -1.984,0.851 c -0.47,0 -0.85,-0.381 -0.85,-0.851 0,-0.47 0.381,-0.85 0.85,-0.85 0.469,0 0.851,0.381 0.851,0.85 0,0.469 -0.381,0.851 -0.851,0.851 z"
               id="pad19-gpio4" /><path
               d="m 44.503,35.431 c 0,-0.47 0.381,-0.85 0.851,-0.85 v -0.808 h -4.479 v 3.317 h 4.479 v -0.808 c -0.47,0 -0.851,-0.381 -0.851,-0.851 z m -1.984,0.851 c -0.47,0 -0.85,-0.381 -0.85,-0.851 0,-0.47 0.381,-0.85 0.85,-0.85 0.469,0 0.851,0.381 0.851,0.85 0,0.47 -0.381,0.851 -0.851,0.851 z"
               id="pad20-gpio5" /><path
               d="m 44.503,29.763 c 0,-0.47 0.381,-0.851 0.851,-0.851 v -0.808 h -4.479 v 3.317 h 4.479 v -0.808 c -0.47,0 -0.851,-0.381 -0.851,-0.85 z m -1.984,0.85 c -0.47,0 -0.85,-0.381 -0.85,-0.85 0,-0.47 0.381,-0.851 0.85,-0.851 0.469,0 0.851,0.381 0.851,0.851 0,0.469 -0.381,0.85 -0.851,0.85 z"
               id="pad21-rxd0" /><path
               d="m 44.503,24.094 c 0,-0.47 0.381,-0.851 0.851,-0.851 v -0.808 h -4.479 v 3.317 h 4.479 v -0.808 c -0.47,0 -0.851,-0.381 -0.851,-0.85 z m -1.984,0.85 c -0.47,0 -0.85,-0.381 -0.85,-0.85 0,-0.469 0.381,-0.851 0.85,-0.851 0.469,0 0.851,0.381 0.851,0.851 0,0.47 -0.381,0.85 -0.851,0.85 z"
               id="pad22-txd0" /></g></g><g
           id="antenna"
           style="fill:#9a916c"><polygon
             points="28.617,3.269 23.357,3.269 23.357,10.969 15.077,10.969 15.077,3.269 9.961,3.269 9.961,15.286 8.741,15.286 8.741,3.269 3.697,3.269 3.697,15.289 2.049,15.289 2.049,2.049 16.297,2.049 16.297,9.749 22.137,9.749 22.137,2.049 29.837,2.049 29.837,9.749 35.741,9.749 35.741,2.049 43.301,2.049 43.301,15.289 42.081,15.289 42.081,3.269 36.961,3.269 36.961,10.969 28.617,10.969 "
             id="polygon165" /></g><g
           id="led"><g
             id="silk"
             style="fill:#ffffff"><polygon
               points="40.239,20.085 40.239,19.868 37.079,19.868 37.079,16.967 40.239,16.967 40.239,16.75 36.844,16.75 36.844,20.085 "
               id="polygon169" /><polygon
               points="44.431,20.085 44.431,16.75 41.036,16.75 41.036,16.967 44.196,16.967 44.196,19.868 41.036,19.868 41.036,20.085 "
               id="polygon171" /></g><rect
             width="2.4000001"
             height="2.4000001"
             x="37.312"
             y="17.218"
             transform="matrix(-1,0,0,-1,77.023,36.835)"
             id="led-pad-left"
             style="fill:#9a916c" /><rect
             width="2.4000001"
             height="2.4000001"
             x="41.563"
             y="17.218"
             transform="matrix(-1,0,0,-1,85.527,36.835)"
             id="led-pad-right"
             style="fill:#9a916c" /><path
             d="m 43.07,18.418 c 0,-0.313 0.254,-0.567 0.567,-0.567 v -0.433 h -6 v 0.433 c 0.313,0 0.567,0.254 0.567,0.567 0,0.313 -0.254,0.567 -0.567,0.567 v 0.433 h 6 v -0.433 c -0.313,0 -0.567,-0.254 -0.567,-0.567 z"
             id="led-outer"
             style="fill:#cdcccc" /><rect
             width="4"
             height="2"
             x="38.637001"
             y="17.417999"
             id="led-blue"
             style="fill:#3d55a5" /></g><g
           id="holes"
           style="opacity:0.5;fill:#333333;stroke:#9a916c;stroke-width:0.2;stroke-linecap:round"><g
             id="holes-right"><circle
               cx="43.700001"
               cy="60.900002"
               r="0.55000001"
               id="circle179" /><circle
               cx="43.700001"
               cy="55.299999"
               r="0.55000001"
               id="circle181" /><circle
               cx="43.700001"
               cy="49.599998"
               r="0.55000001"
               id="circle183" /><circle
               cx="43.700001"
               cy="43.900002"
               r="0.55000001"
               id="circle185" /><circle
               cx="43.700001"
               cy="38.299999"
               r="0.55000001"
               id="circle187" /><circle
               cx="43.700001"
               cy="32.599998"
               r="0.55000001"
               id="circle189" /><circle
               cx="43.700001"
               cy="26.9"
               r="0.55000001"
               id="circle191" /><circle
               cx="43.700001"
               cy="21.200001"
               r="0.55000001"
               id="circle193" /></g><g
             id="holes-left"><circle
               cx="1.7"
               cy="60.900002"
               r="0.55000001"
               id="circle196" /><circle
               cx="1.7"
               cy="55.299999"
               r="0.55000001"
               id="circle198" /><circle
               cx="1.6"
               cy="49.599998"
               r="0.55000001"
               id="circle200" /><circle
               cx="1.7"
               cy="43.900002"
               r="0.55000001"
               id="circle202" /><circle
               cx="1.7"
               cy="38.299999"
               r="0.55000001"
               id="circle204" /><circle
               cx="1.7"
               cy="32.599998"
               r="0.55000001"
               id="circle206" /><circle
               cx="1.6"
               cy="26.9"
               r="0.55000001"
               id="circle208" /></g><g
             id="holes-top"><circle
               cx="1.65"
               cy="18.15"
               r="0.55000001"
               id="circle211" /><circle
               cx="3.3499999"
               cy="18.15"
               r="0.55000001"
               id="circle213" /><circle
               cx="5.0500002"
               cy="18.15"
               r="0.55000001"
               id="circle215" /><circle
               cx="6.75"
               cy="18.15"
               r="0.55000001"
               id="circle217" /></g><g
             id="holes-bot"><circle
               cx="1.65"
               cy="19.85"
               r="0.55000001"
               id="circle220" /><circle
               cx="3.3499999"
               cy="19.85"
               r="0.55000001"
               id="circle222" /><circle
               cx="5.0500002"
               cy="19.85"
               r="0.55000001"
               id="circle224" /><circle
               cx="6.75"
               cy="19.85"
               r="0.55000001"
               id="circle226" /></g><g
             id="holes-top-2"><circle
               cx="11.65"
               cy="18.15"
               r="0.55000001"
               id="circle229" /><circle
               cx="13.35"
               cy="18.15"
               r="0.55000001"
               id="circle231" /><circle
               cx="15.05"
               cy="18.15"
               r="0.55000001"
               id="circle233" /><circle
               cx="16.75"
               cy="18.15"
               r="0.55000001"
               id="circle235" /><circle
               cx="18.450001"
               cy="18.15"
               r="0.55000001"
               id="circle237" /><circle
               cx="20.15"
               cy="18.15"
               r="0.55000001"
               id="circle239" /><circle
               cx="21.85"
               cy="18.15"
               r="0.55000001"
               id="circle241" /><circle
               cx="23.549999"
               cy="18.15"
               r="0.55000001"
               id="circle243" /><circle
               cx="25.25"
               cy="18.15"
               r="0.55000001"
               id="circle245" /><circle
               cx="26.950001"
               cy="18.15"
               r="0.55000001"
               id="circle247" /><circle
               cx="28.65"
               cy="18.15"
               r="0.55000001"
               id="circle249" /><circle
               cx="30.35"
               cy="18.15"
               r="0.55000001"
               id="circle251" /><circle
               cx="32.049999"
               cy="18.15"
               r="0.55000001"
               id="circle253" /><circle
               cx="33.75"
               cy="18.15"
               r="0.55000001"
               id="circle255" /><circle
               cx="35.450001"
               cy="18.15"
               r="0.55000001"
               id="circle257" /></g><g
             id="holes-bot-2"><circle
               cx="11.65"
               cy="19.85"
               r="0.55000001"
               id="circle260" /><circle
               cx="13.35"
               cy="19.85"
               r="0.55000001"
               id="circle262" /><circle
               cx="15.05"
               cy="19.85"
               r="0.55000001"
               id="circle264" /><circle
               cx="16.75"
               cy="19.85"
               r="0.55000001"
               id="circle266" /><circle
               cx="18.450001"
               cy="19.85"
               r="0.55000001"
               id="circle268" /><circle
               cx="20.15"
               cy="19.85"
               r="0.55000001"
               id="circle270" /><circle
               cx="21.85"
               cy="19.85"
               r="0.55000001"
               id="circle272" /><circle
               cx="23.549999"
               cy="19.85"
               r="0.55000001"
               id="circle274" /><circle
               cx="25.25"
               cy="19.85"
               r="0.55000001"
               id="circle276" /><circle
               cx="26.950001"
               cy="19.85"
               r="0.55000001"
               id="circle278" /><circle
               cx="28.65"
               cy="19.85"
               r="0.55000001"
               id="circle280" /></g></g><g
           id="cover"
           style="fill:#ffffff"><rect
             width="34.200001"
             height="43.200001"
             x="5.5749998"
             y="21.26"
             id="main"
             style="fill:#999999" /><g
             id="shadows"><polygon
               points="39.775,64.96 40.275,64.46 40.275,21.26 39.996,20.981 39.275,21.891 39.275,63.96 6.075,63.96 6.075,63.828 5.354,64.739 5.575,64.96 "
               id="bottom-right"
               style="fill:#cccccc" /><polygon
               points="5.075,21.26 5.075,64.46 5.354,64.739 6.075,63.828 6.075,21.76 39.275,21.76 39.275,21.891 39.996,20.981 39.775,20.76 5.575,20.76 "
               id="top-left"
               style="fill:#666666" /></g><g
             id="wemos-logo"><path
               d="m 37.964,27.034 v 0.624 c -0.335,0.243 -0.742,0.439 -1.129,0.17 -2.053,-1.03 -4.391,-1.664 -6.696,-1.322 -0.912,0.168 -1.92,0.477 -2.449,1.301 -0.522,0.877 -0.163,1.995 0.419,2.748 0.295,0.424 0.851,0.443 1.294,0.619 0.465,0.136 0.505,0.856 0.151,1.129 -0.525,0.279 -1.172,0.365 -1.58,0.832 -0.651,0.677 -0.832,1.856 -0.189,2.598 0.632,0.692 1.617,0.905 2.516,0.95 1.684,0.052 3.393,-0.365 4.847,-1.221 0.63,-0.355 1.101,-0.929 1.731,-1.279 0.484,-0.12 0.935,0.426 0.697,0.875 -0.432,0.867 -1.337,1.365 -2.161,1.8 -1.922,0.888 -4.081,1.467 -6.204,1.12 -1.51,-0.273 -3,-1.368 -3.212,-2.974 V 33.94 c 0.179,-0.866 0.66,-1.63 1.327,-2.204 -0.636,-0.722 -1.18,-1.557 -1.327,-2.526 v -0.768 c 0.092,-0.776 0.421,-1.535 1.008,-2.064 1.024,-0.95 2.456,-1.281 3.812,-1.38 h 1.357 c 1.667,0.234 3.309,0.66 4.862,1.31 0.373,0.148 0.676,0.419 0.926,0.726 z"
               id="wemos-logo-w" /><path
               d="m 30.546,40.415 c -0.594,-1.423 -2.767,-1.727 -3.769,-0.591 -0.701,0.897 -0.551,2.15 -0.207,3.159 0.308,0.007 0.617,0.017 0.925,0.026 -0.428,-0.86 -0.587,-2.387 0.643,-2.636 0.041,1.009 0.007,2.019 0.021,3.028 0.617,-0.017 1.297,0.006 1.815,-0.385 0.821,-0.56 0.914,-1.741 0.572,-2.601 z m -0.663,1.035 c 0.011,0.514 -0.538,0.675 -0.937,0.789 -0.017,-0.621 -0.017,-1.239 -0.002,-1.86 0.458,0.169 1.023,0.496 0.939,1.071 z"
               id="wemos-logo-e" /><path
               d="m 32.315,44.339 c 0.007,0.649 0.006,1.297 0.006,1.946 -1.436,0.548 -2.869,1.109 -4.324,1.604 1.451,0.518 2.888,1.067 4.324,1.623 0,0.63 0,1.258 0,1.888 -1.974,-0.004 -3.948,-0.002 -5.922,0 0.002,-0.445 0.002,-0.89 0.011,-1.335 1.626,0.011 3.255,0.03 4.879,0.03 -1.681,-0.419 -3.258,-1.155 -4.888,-1.727 0,-0.353 0,-0.707 -0.002,-1.06 1.626,-0.613 3.217,-1.35 4.903,-1.783 -1.628,0.009 -3.26,0.022 -4.892,0.041 -0.007,-0.408 -0.009,-0.815 -0.009,-1.223 1.971,0.007 3.942,0.011 5.914,-0.004 z"
               id="wemos-logo-m" /><path
               d="m 30.208,53.854 c 0.639,1.191 -0.555,2.815 -1.886,2.44 -1.338,-0.29 -1.742,-2.24 -0.654,-3.056 0.781,-0.738 2.155,-0.353 2.54,0.616 z"
               id="wemos-logo-o" /><path
               d="m 35.339,49.289 c 1.166,1.163 2.034,2.658 2.253,4.307 0.368,2.311 -0.557,4.701 -2.226,6.307 -0.297,-0.288 -0.596,-0.572 -0.895,-0.856 1.273,-1.202 2.026,-2.954 1.931,-4.711 -0.064,-1.585 -0.817,-3.088 -1.952,-4.182 0.295,-0.289 0.594,-0.577 0.889,-0.865 z"
               id="wemos-logo-wifi-fan-3" /><path
               d="m 33.79,50.734 c 1.256,1.138 1.918,2.894 1.669,4.578 -0.123,1.217 -0.793,2.29 -1.608,3.172 -0.327,-0.323 -0.662,-0.639 -1.002,-0.948 0.884,-0.869 1.41,-2.116 1.243,-3.363 -0.082,-0.959 -0.594,-1.815 -1.252,-2.496 0.32,-0.309 0.637,-0.624 0.95,-0.943 z"
               id="wemos-logo-wifi-fan-2" /><path
               d="m 32.214,52.241 c 0.565,0.634 1.024,1.417 1.024,2.288 0.049,0.92 -0.4,1.778 -1.011,2.436 -0.318,-0.312 -0.643,-0.617 -0.972,-0.916 0.791,-0.776 0.809,-2.101 -0.013,-2.862 0.329,-0.311 0.654,-0.625 0.972,-0.946 z"
               id="wemos-logo-wifi-fan-1" /><path
               d="m 30.378,58.056 c 0.497,0.77 0.361,1.742 0.206,2.595 -0.323,0.002 -0.649,0.004 -0.972,0.011 0.252,-0.641 0.439,-1.411 -0.054,-1.995 -0.794,0.563 -0.578,1.89 -1.591,2.225 H 27.31 c -1.217,-0.578 -1.159,-2.221 -0.823,-3.32 0.333,-0.06 0.673,-0.06 1.009,-0.08 -0.207,0.578 -0.467,1.2 -0.288,1.823 0.039,0.275 0.2,0.389 0.482,0.338 0.439,-0.572 0.434,-1.393 0.98,-1.896 0.517,-0.402 1.368,-0.275 1.708,0.299 z"
               id="wemos-logo-s" /></g><g
             id="words"><g
               id="model"><path
                 d="m 23.58,25.248 v 1.018 l -1.525,0.393 1.525,0.39 v 1.018 h -2.506 v -0.634 h 1.91 l -1.91,-0.488 V 26.37 l 1.91,-0.488 h -1.91 v -0.634 h 2.506 z"
                 id="model-m" /><path
                 d="m 22.325,28.463 c 0.409,0 0.728,0.114 0.955,0.342 0.229,0.228 0.342,0.545 0.342,0.952 0,0.417 -0.111,0.738 -0.336,0.964 -0.224,0.226 -0.537,0.338 -0.94,0.338 -0.293,0 -0.533,-0.049 -0.721,-0.148 -0.188,-0.099 -0.333,-0.241 -0.438,-0.427 -0.104,-0.186 -0.156,-0.418 -0.156,-0.696 0,-0.283 0.045,-0.517 0.135,-0.702 0.091,-0.185 0.232,-0.335 0.428,-0.45 0.196,-0.115 0.438,-0.173 0.731,-0.173 z m -0.003,0.774 c -0.254,0 -0.436,0.047 -0.546,0.141 -0.11,0.094 -0.165,0.222 -0.165,0.384 0,0.166 0.054,0.295 0.162,0.386 0.108,0.091 0.303,0.137 0.582,0.137 0.236,0 0.408,-0.047 0.518,-0.143 0.108,-0.095 0.163,-0.224 0.163,-0.387 0,-0.156 -0.056,-0.282 -0.166,-0.376 -0.11,-0.095 -0.293,-0.142 -0.548,-0.142 z"
                 id="model-o" /><path
                 d="m 23.58,31.485 v 1.15 c 0,0.227 -0.031,0.41 -0.093,0.549 -0.062,0.139 -0.149,0.255 -0.265,0.346 -0.115,0.091 -0.249,0.157 -0.402,0.198 -0.152,0.041 -0.314,0.062 -0.484,0.062 -0.269,0 -0.476,-0.031 -0.623,-0.092 -0.147,-0.061 -0.271,-0.146 -0.371,-0.254 -0.1,-0.108 -0.166,-0.224 -0.199,-0.349 -0.046,-0.169 -0.068,-0.323 -0.068,-0.461 v -1.15 h 2.505 z m -0.568,0.775 h -1.368 v 0.189 c 0,0.162 0.018,0.277 0.054,0.345 0.036,0.068 0.099,0.122 0.188,0.161 0.09,0.039 0.234,0.058 0.436,0.058 0.266,0 0.447,-0.043 0.545,-0.13 0.098,-0.087 0.146,-0.23 0.146,-0.431 V 32.26 z"
                 id="model-d" /><path
                 d="m 23.58,34.196 v 2.074 h -0.535 v -1.299 h -0.398 v 1.205 h -0.511 v -1.205 h -0.494 v 1.337 h -0.567 v -2.112 h 2.505 z"
                 id="model-e" /><path
                 d="m 23.58,36.725 v 0.774 h -1.889 v 1.208 h -0.617 v -1.982 h 2.506 z"
                 id="model-l" /></g><g
               id="esp-8266"><path
                 d="m 23.58,41.255 v 2.074 H 23.045 V 42.03 h -0.398 v 1.205 H 22.136 V 42.03 h -0.494 v 1.337 h -0.567 v -2.112 h 2.505 z"
                 id="esp-e" /><path
                 d="m 21.903,43.648 0.046,0.736 c -0.119,0.017 -0.211,0.049 -0.273,0.098 -0.102,0.08 -0.152,0.193 -0.152,0.342 0,0.11 0.026,0.195 0.078,0.256 0.052,0.06 0.111,0.09 0.18,0.09 0.065,0 0.123,-0.029 0.175,-0.086 0.052,-0.057 0.1,-0.189 0.146,-0.396 0.076,-0.34 0.178,-0.582 0.304,-0.727 0.127,-0.146 0.288,-0.219 0.483,-0.219 0.129,0 0.251,0.037 0.365,0.112 0.114,0.074 0.205,0.187 0.271,0.337 0.065,0.149 0.098,0.354 0.098,0.616 0,0.319 -0.06,0.563 -0.179,0.731 -0.119,0.168 -0.309,0.269 -0.568,0.301 l -0.042,-0.73 c 0.112,-0.02 0.194,-0.06 0.246,-0.122 0.051,-0.062 0.077,-0.147 0.077,-0.257 0,-0.09 -0.02,-0.158 -0.058,-0.203 -0.038,-0.046 -0.085,-0.068 -0.14,-0.068 -0.04,0 -0.075,0.019 -0.107,0.056 -0.033,0.037 -0.063,0.123 -0.092,0.26 -0.073,0.339 -0.147,0.581 -0.222,0.728 -0.075,0.146 -0.167,0.253 -0.278,0.319 -0.11,0.066 -0.233,0.101 -0.37,0.101 -0.161,0 -0.309,-0.045 -0.444,-0.134 -0.135,-0.089 -0.238,-0.213 -0.309,-0.372 -0.07,-0.16 -0.105,-0.361 -0.105,-0.604 0,-0.427 0.082,-0.722 0.246,-0.886 0.164,-0.164 0.371,-0.257 0.624,-0.279 z"
                 id="esp-s" /><path
                 d="m 23.58,46.308 v 1.287 c 0,0.28 -0.067,0.49 -0.2,0.63 -0.134,0.14 -0.323,0.209 -0.569,0.209 -0.253,0 -0.45,-0.076 -0.593,-0.228 -0.143,-0.152 -0.214,-0.385 -0.214,-0.697 v -0.424 h -0.93 v -0.777 h 2.506 z m -1.068,0.777 v 0.19 c 0,0.149 0.025,0.254 0.077,0.314 0.052,0.06 0.118,0.09 0.199,0.09 0.079,0 0.146,-0.025 0.2,-0.078 0.054,-0.053 0.082,-0.151 0.082,-0.296 v -0.221 h -0.558 z"
                 id="esp-p" /><path
                 d="m 22.257,48.66 v 1.012 H 21.719 V 48.66 h 0.538 z"
                 id="esp-dash" /><path
                 d="m 22.421,50.311 c 0.058,-0.109 0.123,-0.189 0.194,-0.239 0.099,-0.068 0.211,-0.103 0.339,-0.103 0.21,0 0.381,0.098 0.515,0.295 0.103,0.154 0.153,0.357 0.153,0.61 0,0.335 -0.063,0.582 -0.191,0.742 -0.127,0.16 -0.288,0.24 -0.481,0.24 -0.113,0 -0.219,-0.031 -0.316,-0.096 -0.073,-0.048 -0.144,-0.123 -0.212,-0.226 -0.065,0.136 -0.151,0.237 -0.258,0.304 -0.107,0.066 -0.226,0.1 -0.355,0.1 -0.126,0 -0.242,-0.028 -0.352,-0.086 -0.108,-0.058 -0.192,-0.128 -0.252,-0.212 -0.06,-0.084 -0.103,-0.188 -0.131,-0.312 -0.027,-0.125 -0.042,-0.258 -0.042,-0.399 0,-0.266 0.031,-0.468 0.094,-0.608 0.063,-0.14 0.155,-0.247 0.277,-0.319 0.122,-0.073 0.258,-0.109 0.408,-0.109 0.147,0 0.271,0.034 0.374,0.103 0.101,0.066 0.18,0.172 0.236,0.315 z m -0.586,0.274 c -0.11,0 -0.201,0.034 -0.271,0.102 -0.069,0.066 -0.104,0.144 -0.104,0.23 0,0.083 0.035,0.157 0.106,0.224 0.071,0.067 0.161,0.1 0.271,0.1 0.111,0 0.201,-0.034 0.272,-0.101 0.07,-0.066 0.105,-0.144 0.105,-0.231 0,-0.087 -0.034,-0.162 -0.103,-0.227 -0.069,-0.065 -0.16,-0.097 -0.276,-0.097 z m 1.078,0.038 c -0.087,0 -0.156,0.026 -0.209,0.081 -0.054,0.054 -0.08,0.126 -0.08,0.216 0,0.08 0.026,0.146 0.079,0.197 0.052,0.051 0.12,0.076 0.203,0.076 0.087,0 0.157,-0.026 0.211,-0.08 0.055,-0.054 0.081,-0.122 0.081,-0.205 0,-0.084 -0.026,-0.153 -0.079,-0.206 -0.053,-0.053 -0.122,-0.079 -0.206,-0.079 z"
                 id="esp-8" /><path
                 d="m 21.074,54.264 v -2.089 c 0.206,0.024 0.4,0.097 0.582,0.218 0.182,0.122 0.396,0.35 0.644,0.684 0.151,0.203 0.267,0.334 0.345,0.391 0.079,0.058 0.153,0.086 0.225,0.086 0.076,0 0.141,-0.028 0.195,-0.085 0.054,-0.057 0.081,-0.127 0.081,-0.213 0,-0.089 -0.028,-0.161 -0.084,-0.218 -0.056,-0.057 -0.154,-0.094 -0.296,-0.113 l 0.057,-0.697 c 0.196,0.027 0.35,0.077 0.459,0.15 0.11,0.072 0.194,0.176 0.253,0.309 0.059,0.133 0.088,0.316 0.088,0.551 0,0.245 -0.027,0.436 -0.083,0.571 -0.057,0.137 -0.142,0.243 -0.258,0.321 -0.115,0.078 -0.245,0.117 -0.389,0.117 -0.152,0 -0.299,-0.045 -0.438,-0.134 -0.139,-0.09 -0.292,-0.252 -0.458,-0.488 -0.097,-0.14 -0.165,-0.233 -0.203,-0.281 -0.039,-0.047 -0.09,-0.103 -0.152,-0.166 v 1.087 h -0.568 z"
                 id="esp-2" /><path
                 d="M 23.016,56.575 22.93,55.883 c 0.098,-0.018 0.166,-0.049 0.205,-0.091 0.04,-0.043 0.061,-0.096 0.061,-0.158 0,-0.113 -0.058,-0.201 -0.171,-0.264 -0.082,-0.045 -0.258,-0.079 -0.526,-0.101 0.084,0.083 0.146,0.169 0.187,0.257 0.041,0.087 0.062,0.188 0.062,0.304 0,0.224 -0.08,0.412 -0.24,0.566 -0.159,0.154 -0.361,0.231 -0.606,0.231 -0.165,0 -0.315,-0.039 -0.452,-0.117 -0.137,-0.078 -0.24,-0.186 -0.311,-0.324 -0.071,-0.138 -0.105,-0.312 -0.105,-0.521 0,-0.251 0.043,-0.452 0.129,-0.604 0.085,-0.151 0.222,-0.272 0.409,-0.363 0.188,-0.09 0.436,-0.136 0.744,-0.136 0.452,0 0.783,0.096 0.993,0.286 0.211,0.189 0.315,0.453 0.315,0.791 0,0.199 -0.022,0.356 -0.069,0.473 -0.046,0.115 -0.113,0.211 -0.202,0.288 -0.091,0.078 -0.203,0.135 -0.337,0.175 z m -1.117,-1.281 c -0.136,0 -0.241,0.034 -0.318,0.103 -0.077,0.069 -0.115,0.151 -0.115,0.251 0,0.091 0.034,0.167 0.104,0.229 0.069,0.062 0.173,0.093 0.311,0.093 0.142,0 0.249,-0.032 0.323,-0.096 0.074,-0.064 0.11,-0.144 0.11,-0.237 0,-0.098 -0.035,-0.179 -0.107,-0.244 -0.071,-0.067 -0.174,-0.099 -0.308,-0.099 z"
                 id="esp-6" /><path
                 d="M 23.016,58.91 22.93,58.218 c 0.098,-0.018 0.166,-0.049 0.205,-0.091 0.04,-0.043 0.061,-0.096 0.061,-0.158 0,-0.113 -0.058,-0.201 -0.171,-0.264 -0.082,-0.045 -0.258,-0.079 -0.526,-0.101 0.084,0.083 0.146,0.169 0.187,0.257 0.041,0.087 0.062,0.188 0.062,0.304 0,0.224 -0.08,0.412 -0.24,0.566 -0.159,0.154 -0.361,0.231 -0.606,0.231 -0.165,0 -0.315,-0.039 -0.452,-0.117 -0.137,-0.078 -0.24,-0.186 -0.311,-0.324 -0.071,-0.138 -0.105,-0.312 -0.105,-0.521 0,-0.251 0.043,-0.452 0.129,-0.604 0.085,-0.151 0.222,-0.272 0.409,-0.363 0.188,-0.09 0.436,-0.136 0.744,-0.136 0.452,0 0.783,0.096 0.993,0.286 0.211,0.189 0.315,0.453 0.315,0.791 0,0.199 -0.022,0.356 -0.069,0.473 -0.046,0.115 -0.113,0.211 -0.202,0.288 -0.091,0.077 -0.203,0.135 -0.337,0.175 z m -1.117,-1.281 c -0.136,0 -0.241,0.034 -0.318,0.103 -0.077,0.069 -0.115,0.151 -0.115,0.251 0,0.091 0.034,0.167 0.104,0.229 0.069,0.062 0.173,0.093 0.311,0.093 0.142,0 0.249,-0.032 0.323,-0.096 0.074,-0.064 0.11,-0.144 0.11,-0.237 0,-0.098 -0.035,-0.179 -0.107,-0.244 -0.071,-0.067 -0.174,-0.099 -0.308,-0.099 z"
                 id="path311" /></g><g
               id="ism"><path
                 d="m 19.067,41.246 v 0.665 H 16.92 v -0.665 h 2.147 z"
                 id="ism-i" /><path
                 d="m 17.631,42.271 0.039,0.631 c -0.103,0.014 -0.181,0.042 -0.234,0.084 -0.087,0.068 -0.131,0.166 -0.131,0.293 0,0.095 0.022,0.167 0.067,0.219 0.044,0.051 0.096,0.077 0.154,0.077 0.056,0 0.105,-0.024 0.149,-0.073 0.044,-0.049 0.085,-0.162 0.125,-0.34 0.064,-0.291 0.152,-0.499 0.26,-0.623 0.109,-0.125 0.247,-0.188 0.415,-0.188 0.11,0 0.215,0.032 0.312,0.096 0.099,0.064 0.176,0.16 0.231,0.289 0.057,0.128 0.084,0.305 0.084,0.528 0,0.274 -0.051,0.483 -0.152,0.627 -0.103,0.145 -0.265,0.23 -0.487,0.258 l -0.036,-0.626 c 0.096,-0.017 0.166,-0.052 0.211,-0.104 0.043,-0.054 0.065,-0.127 0.065,-0.221 0,-0.077 -0.017,-0.135 -0.049,-0.174 -0.033,-0.039 -0.073,-0.059 -0.12,-0.059 -0.034,0 -0.064,0.016 -0.092,0.048 -0.028,0.031 -0.055,0.105 -0.079,0.223 -0.062,0.29 -0.126,0.498 -0.189,0.623 -0.064,0.126 -0.144,0.217 -0.238,0.274 -0.095,0.057 -0.2,0.086 -0.317,0.086 -0.139,0 -0.266,-0.038 -0.381,-0.114 -0.117,-0.076 -0.205,-0.183 -0.265,-0.319 -0.061,-0.137 -0.091,-0.31 -0.091,-0.518 0,-0.365 0.07,-0.618 0.211,-0.759 0.141,-0.141 0.321,-0.219 0.538,-0.238 z"
                 id="ism-s" /><path
                 d="m 19.067,44.546 v 0.873 l -1.307,0.337 1.307,0.334 v 0.872 H 16.92 v -0.544 h 1.638 L 16.92,45.999 V 45.508 L 18.558,45.09 H 16.92 v -0.544 h 2.147 z"
                 id="ism-m" /><path
                 d="m 16.92,50.035 v -1.79 c 0.177,0.021 0.343,0.083 0.499,0.187 0.155,0.104 0.339,0.299 0.552,0.585 0.129,0.175 0.229,0.287 0.295,0.336 0.068,0.049 0.132,0.073 0.192,0.073 0.065,0 0.121,-0.024 0.168,-0.072 0.046,-0.049 0.069,-0.109 0.069,-0.183 0,-0.076 -0.024,-0.139 -0.072,-0.187 -0.048,-0.049 -0.132,-0.081 -0.253,-0.098 l 0.048,-0.598 c 0.168,0.023 0.3,0.066 0.394,0.129 0.095,0.062 0.167,0.15 0.217,0.265 0.051,0.113 0.075,0.271 0.075,0.472 0,0.21 -0.023,0.373 -0.071,0.49 -0.048,0.116 -0.121,0.208 -0.221,0.275 -0.099,0.066 -0.21,0.101 -0.333,0.101 -0.131,0 -0.256,-0.039 -0.375,-0.115 -0.119,-0.077 -0.25,-0.216 -0.393,-0.418 -0.083,-0.12 -0.142,-0.201 -0.174,-0.241 -0.034,-0.041 -0.077,-0.088 -0.131,-0.143 v 0.932 H 16.92 z"
                 id="ism-2" /><path
                 d="m 17.518,50.349 v 0.637 H 16.92 v -0.637 h 0.598 z"
                 id="ism-dot" /><path
                 d="m 17.321,52.314 v -1.087 h 0.491 l 1.291,1.087 v 0.52 h -1.319 v 0.27 h -0.463 v -0.27 H 16.92 v -0.52 h 0.401 z m 0.463,0 H 18.46 L 17.784,51.74 v 0.574 z"
                 id="ism-4" /><path
                 d="m 17.697,54.466 h 0.447 v 1.025 h -0.916 c -0.134,-0.196 -0.225,-0.369 -0.272,-0.521 -0.049,-0.15 -0.073,-0.33 -0.073,-0.537 0,-0.255 0.044,-0.463 0.131,-0.623 0.087,-0.161 0.216,-0.285 0.389,-0.373 0.171,-0.089 0.369,-0.133 0.592,-0.133 0.234,0 0.438,0.048 0.611,0.145 0.173,0.097 0.305,0.238 0.395,0.425 0.069,0.146 0.104,0.342 0.104,0.588 0,0.237 -0.021,0.414 -0.064,0.532 -0.043,0.117 -0.109,0.216 -0.199,0.293 -0.091,0.078 -0.205,0.136 -0.344,0.175 l -0.114,-0.64 c 0.081,-0.026 0.143,-0.071 0.187,-0.134 0.042,-0.063 0.064,-0.144 0.064,-0.241 0,-0.146 -0.051,-0.262 -0.152,-0.348 -0.101,-0.087 -0.261,-0.13 -0.479,-0.13 -0.232,0 -0.398,0.043 -0.498,0.131 -0.1,0.087 -0.149,0.209 -0.149,0.365 0,0.074 0.011,0.146 0.032,0.213 0.021,0.067 0.058,0.145 0.11,0.231 H 17.7 v -0.443 z"
                 id="ism-g" /><path
                 d="m 19.067,55.889 v 0.663 h -0.751 v 0.726 h 0.751 v 0.666 H 16.92 v -0.666 h 0.869 V 56.552 H 16.92 v -0.663 h 2.147 z"
                 id="ism-h" /><path
                 d="m 18.476,58.277 v 1.443 h -0.349 l -0.8,-0.785 v 0.833 H 16.92 v -1.55 h 0.387 l 0.762,0.746 v -0.688 h 0.407 z"
                 id="ism-z" /></g><g
               id="pa"><path
                 d="m 15.067,41.217 v 1.103 c 0,0.24 -0.058,0.42 -0.171,0.54 -0.115,0.119 -0.277,0.18 -0.488,0.18 -0.217,0 -0.387,-0.065 -0.508,-0.195 -0.123,-0.131 -0.184,-0.33 -0.184,-0.598 V 41.884 H 12.92 v -0.666 h 2.147 z m -0.915,0.666 v 0.163 c 0,0.128 0.021,0.218 0.066,0.27 0.044,0.052 0.101,0.077 0.17,0.077 0.068,0 0.125,-0.022 0.172,-0.067 0.047,-0.045 0.07,-0.129 0.07,-0.253 v -0.189 h -0.478 z"
                 id="pa-p" /><path
                 d="M 13.274,44.451 V 43.698 L 12.92,43.594 v -0.678 l 2.147,0.807 v 0.724 L 12.92,45.255 V 44.56 l 0.354,-0.109 z m 0.464,-0.138 0.772,-0.237 -0.772,-0.234 v 0.471 z"
                 id="pa-a" /><path
                 d="m 14.229,46.432 v 0.561 h 0.563 v 0.474 h -0.563 v 0.563 h -0.474 v -0.563 h -0.562 v -0.474 h 0.562 v -0.561 h 0.474 z"
                 id="pa-plus" /><path
                 d="m 12.92,50.095 v -1.79 c 0.177,0.021 0.343,0.083 0.499,0.187 0.155,0.104 0.339,0.3 0.552,0.586 0.129,0.175 0.229,0.286 0.295,0.335 0.068,0.049 0.132,0.073 0.192,0.073 0.065,0 0.121,-0.024 0.168,-0.072 0.046,-0.049 0.069,-0.109 0.069,-0.183 0,-0.076 -0.024,-0.139 -0.072,-0.187 -0.048,-0.049 -0.132,-0.081 -0.253,-0.098 l 0.048,-0.598 c 0.168,0.023 0.3,0.066 0.394,0.129 0.095,0.062 0.167,0.15 0.217,0.265 0.051,0.113 0.075,0.271 0.075,0.473 0,0.21 -0.023,0.373 -0.071,0.489 -0.048,0.117 -0.121,0.209 -0.221,0.275 -0.099,0.067 -0.21,0.101 -0.333,0.101 -0.131,0 -0.256,-0.038 -0.375,-0.115 -0.119,-0.076 -0.25,-0.216 -0.393,-0.418 -0.083,-0.12 -0.142,-0.2 -0.174,-0.241 -0.034,-0.04 -0.077,-0.088 -0.131,-0.143 v 0.932 H 12.92 z"
                 id="pa-2" /><path
                 d="m 15.067,50.592 v 1.416 h -0.476 v -0.959 l -0.322,-0.052 c 0.03,0.066 0.054,0.132 0.07,0.197 0.015,0.064 0.023,0.129 0.023,0.192 0,0.215 -0.065,0.39 -0.195,0.523 -0.13,0.133 -0.294,0.2 -0.49,0.2 -0.14,0 -0.272,-0.034 -0.4,-0.104 -0.128,-0.068 -0.226,-0.166 -0.293,-0.293 -0.067,-0.126 -0.102,-0.288 -0.102,-0.485 0,-0.142 0.014,-0.263 0.041,-0.364 0.026,-0.101 0.066,-0.187 0.12,-0.258 0.053,-0.07 0.113,-0.128 0.181,-0.172 0.068,-0.044 0.151,-0.08 0.252,-0.109 l 0.066,0.604 c -0.098,0.015 -0.171,0.049 -0.221,0.103 -0.051,0.054 -0.076,0.117 -0.076,0.191 0,0.083 0.032,0.151 0.095,0.206 0.063,0.054 0.157,0.081 0.282,0.081 0.128,0 0.222,-0.027 0.281,-0.082 0.059,-0.055 0.09,-0.127 0.09,-0.218 0,-0.058 -0.015,-0.113 -0.043,-0.167 -0.021,-0.04 -0.058,-0.084 -0.111,-0.132 l 0.073,-0.509 1.155,0.191 z"
                 id="pa-5" /><path
                 d="M 15.067,54.046 H 12.92 v -0.559 h 0.23 c -0.099,-0.078 -0.164,-0.149 -0.198,-0.214 -0.045,-0.086 -0.067,-0.182 -0.067,-0.287 0,-0.212 0.08,-0.374 0.242,-0.485 0.16,-0.112 0.356,-0.168 0.587,-0.168 0.258,0 0.455,0.062 0.592,0.186 0.137,0.123 0.205,0.28 0.205,0.471 0,0.093 -0.016,0.177 -0.047,0.253 -0.031,0.075 -0.078,0.143 -0.141,0.201 h 0.744 v 0.602 z m -1.365,-0.598 c 0.122,0 0.213,-0.026 0.273,-0.078 0.06,-0.052 0.09,-0.117 0.09,-0.196 0,-0.069 -0.029,-0.127 -0.087,-0.174 -0.058,-0.047 -0.154,-0.07 -0.289,-0.07 -0.128,0 -0.221,0.023 -0.279,0.072 -0.06,0.048 -0.089,0.108 -0.089,0.18 0,0.076 0.029,0.14 0.089,0.19 0.06,0.05 0.157,0.076 0.292,0.076 z"
                 id="pa-d" /><path
                 d="m 15.067,54.45 v 1.242 c 0,0.207 -0.052,0.365 -0.153,0.477 -0.104,0.11 -0.23,0.166 -0.381,0.166 -0.128,0 -0.236,-0.039 -0.327,-0.118 -0.061,-0.053 -0.108,-0.13 -0.144,-0.231 -0.037,0.154 -0.101,0.268 -0.191,0.34 -0.09,0.073 -0.204,0.109 -0.34,0.109 -0.111,0 -0.212,-0.025 -0.301,-0.077 -0.089,-0.052 -0.159,-0.123 -0.211,-0.213 -0.032,-0.056 -0.056,-0.14 -0.07,-0.252 -0.02,-0.149 -0.029,-0.248 -0.029,-0.297 V 54.45 h 2.147 z m -1.686,0.669 v 0.339 c 0,0.114 0.021,0.194 0.062,0.241 0.04,0.047 0.095,0.07 0.163,0.07 0.063,0 0.114,-0.023 0.153,-0.069 0.038,-0.047 0.058,-0.128 0.058,-0.244 v -0.337 h -0.436 z m 0.844,0 v 0.289 c 0,0.104 0.019,0.175 0.054,0.216 0.036,0.04 0.087,0.061 0.155,0.061 0.062,0 0.111,-0.021 0.146,-0.061 0.035,-0.041 0.053,-0.111 0.053,-0.212 v -0.293 h -0.408 z"
                 id="pa-b" /><path
                 d="m 14.476,56.747 v 0.557 h -0.228 c 0.095,0.08 0.162,0.161 0.203,0.242 0.039,0.082 0.06,0.181 0.06,0.296 0,0.124 -0.022,0.223 -0.065,0.295 -0.045,0.072 -0.11,0.132 -0.197,0.178 0.102,0.094 0.171,0.179 0.208,0.256 0.036,0.077 0.055,0.172 0.055,0.285 0,0.167 -0.05,0.297 -0.148,0.391 -0.1,0.094 -0.255,0.141 -0.466,0.141 H 12.92 V 58.79 h 0.887 c 0.07,0 0.122,-0.014 0.156,-0.041 0.054,-0.04 0.08,-0.09 0.08,-0.149 0,-0.069 -0.025,-0.126 -0.076,-0.169 -0.051,-0.043 -0.132,-0.064 -0.244,-0.064 H 12.92 v -0.598 h 0.857 c 0.067,0 0.114,-0.004 0.139,-0.012 0.039,-0.013 0.07,-0.034 0.095,-0.066 0.023,-0.031 0.036,-0.067 0.036,-0.109 0,-0.069 -0.026,-0.125 -0.078,-0.17 -0.052,-0.044 -0.137,-0.065 -0.255,-0.065 H 12.92 v -0.598 h 1.556 z"
                 id="pa-m" /></g><g
               id="802"><path
                 d="m 10.074,41.481 c 0.05,-0.094 0.105,-0.162 0.167,-0.205 0.084,-0.059 0.181,-0.088 0.29,-0.088 0.18,0 0.326,0.085 0.441,0.254 0.088,0.132 0.131,0.306 0.131,0.522 0,0.287 -0.055,0.499 -0.164,0.637 -0.109,0.137 -0.247,0.206 -0.412,0.206 -0.098,0 -0.188,-0.027 -0.271,-0.082 -0.062,-0.041 -0.123,-0.105 -0.182,-0.193 -0.056,0.116 -0.13,0.203 -0.221,0.26 C 9.76,42.85 9.66,42.878 9.548,42.878 9.44,42.878 9.34,42.853 9.246,42.804 9.153,42.754 9.081,42.695 9.03,42.622 8.979,42.551 8.942,42.461 8.918,42.354 8.895,42.247 8.882,42.132 8.882,42.011 c 0,-0.228 0.027,-0.401 0.081,-0.521 0.054,-0.12 0.133,-0.211 0.237,-0.273 0.104,-0.062 0.221,-0.094 0.35,-0.094 0.127,0 0.233,0.029 0.32,0.088 0.089,0.059 0.156,0.148 0.204,0.27 z m -0.502,0.237 c -0.096,0 -0.173,0.028 -0.232,0.086 -0.061,0.058 -0.09,0.124 -0.09,0.198 0,0.071 0.03,0.135 0.091,0.191 0.062,0.057 0.139,0.085 0.232,0.085 0.095,0 0.172,-0.028 0.233,-0.085 0.06,-0.058 0.09,-0.124 0.09,-0.199 0,-0.074 -0.029,-0.139 -0.088,-0.193 C 9.75,41.745 9.672,41.718 9.572,41.718 z m 0.924,0.032 c -0.074,0 -0.134,0.022 -0.18,0.069 -0.045,0.046 -0.068,0.108 -0.068,0.186 0,0.068 0.022,0.124 0.068,0.168 0.044,0.044 0.103,0.066 0.174,0.066 0.074,0 0.135,-0.023 0.181,-0.069 0.047,-0.046 0.069,-0.104 0.069,-0.176 0,-0.072 -0.022,-0.131 -0.067,-0.176 -0.046,-0.046 -0.105,-0.068 -0.177,-0.068 z"
                 id="802-8" /><path
                 d="m 10.002,43.124 c 0.408,0 0.694,0.073 0.857,0.221 0.163,0.146 0.244,0.37 0.244,0.671 0,0.145 -0.018,0.264 -0.053,0.356 -0.036,0.093 -0.082,0.168 -0.14,0.227 -0.057,0.059 -0.117,0.105 -0.18,0.139 -0.063,0.034 -0.137,0.061 -0.221,0.081 -0.16,0.04 -0.327,0.061 -0.501,0.061 -0.39,0 -0.675,-0.066 -0.855,-0.198 -0.18,-0.132 -0.27,-0.36 -0.27,-0.682 0,-0.181 0.029,-0.327 0.087,-0.438 0.058,-0.111 0.142,-0.202 0.253,-0.273 0.08,-0.052 0.188,-0.093 0.325,-0.121 0.137,-0.03 0.288,-0.044 0.454,-0.044 z m -0.001,0.592 c -0.273,0 -0.46,0.024 -0.561,0.072 -0.1,0.049 -0.149,0.118 -0.149,0.21 0,0.061 0.021,0.113 0.063,0.158 0.042,0.044 0.109,0.076 0.201,0.098 0.092,0.021 0.234,0.031 0.429,0.031 0.285,0 0.478,-0.023 0.575,-0.072 0.099,-0.048 0.147,-0.121 0.147,-0.218 0,-0.099 -0.05,-0.17 -0.15,-0.214 -0.099,-0.044 -0.285,-0.065 -0.555,-0.065 z"
                 id="802-0" /><path
                 d="m 8.92,46.871 v -1.79 c 0.177,0.021 0.343,0.083 0.499,0.187 0.155,0.104 0.339,0.299 0.552,0.585 0.129,0.175 0.229,0.287 0.295,0.336 0.068,0.049 0.132,0.073 0.192,0.073 0.065,0 0.121,-0.024 0.168,-0.072 0.046,-0.049 0.069,-0.109 0.069,-0.183 0,-0.076 -0.024,-0.139 -0.072,-0.187 -0.048,-0.049 -0.132,-0.081 -0.253,-0.098 l 0.048,-0.598 c 0.168,0.023 0.3,0.066 0.394,0.129 0.095,0.062 0.167,0.15 0.217,0.265 0.051,0.113 0.075,0.271 0.075,0.472 0,0.21 -0.023,0.373 -0.071,0.49 -0.048,0.116 -0.121,0.208 -0.221,0.275 -0.099,0.066 -0.21,0.101 -0.333,0.101 -0.131,0 -0.256,-0.039 -0.375,-0.115 C 9.985,46.664 9.854,46.525 9.711,46.323 9.628,46.203 9.569,46.122 9.537,46.082 9.503,46.041 9.46,45.994 9.406,45.939 v 0.932 H 8.92 z"
                 id="802-2" /><path
                 d="m 9.518,47.185 v 0.637 H 8.92 v -0.637 h 0.598 z"
                 id="802-dot" /><path
                 d="M 11.104,49.477 H 8.92 v -0.604 h 1.432 c -0.075,-0.098 -0.135,-0.192 -0.181,-0.283 -0.046,-0.092 -0.09,-0.206 -0.132,-0.344 h 0.489 c 0.065,0.203 0.144,0.361 0.235,0.474 0.091,0.113 0.205,0.2 0.34,0.264 v 0.493 z"
                 id="802-1" /><path
                 d="M 11.104,51.478 H 8.92 v -0.604 h 1.432 c -0.075,-0.098 -0.135,-0.192 -0.181,-0.283 -0.046,-0.092 -0.09,-0.206 -0.132,-0.344 h 0.489 c 0.065,0.203 0.144,0.361 0.235,0.474 0.091,0.113 0.205,0.2 0.34,0.264 v 0.493 z"
                 id="path338" /><path
                 d="m 11.067,52.187 v 0.603 h -0.744 c 0.062,0.06 0.109,0.127 0.141,0.203 0.031,0.075 0.047,0.159 0.047,0.251 0,0.189 -0.068,0.346 -0.204,0.47 -0.137,0.124 -0.332,0.187 -0.587,0.187 -0.17,0 -0.319,-0.028 -0.449,-0.085 C 9.142,53.759 9.045,53.68 8.981,53.581 8.918,53.48 8.885,53.37 8.885,53.248 c 0,-0.104 0.022,-0.2 0.067,-0.287 0.035,-0.065 0.101,-0.137 0.198,-0.214 H 8.92 v -0.559 h 2.147 z m -1.365,0.597 c -0.134,0 -0.23,0.025 -0.291,0.076 -0.06,0.05 -0.09,0.113 -0.09,0.19 0,0.071 0.029,0.132 0.089,0.18 0.059,0.049 0.158,0.072 0.298,0.072 0.123,0 0.213,-0.023 0.271,-0.07 0.058,-0.048 0.087,-0.105 0.087,-0.173 0,-0.081 -0.03,-0.146 -0.09,-0.198 -0.061,-0.05 -0.152,-0.077 -0.274,-0.077 z"
                 id="802-b" /><path
                 d="m 11.104,54.542 v 0.305 L 8.883,54.308 v -0.302 l 2.221,0.536 z"
                 id="802-slash" /><path
                 d="m 10.476,56.101 v 0.559 h -1.47 l -0.068,0 C 8.84,56.66 8.748,56.639 8.659,56.598 8.571,56.557 8.5,56.501 8.444,56.433 8.39,56.363 8.35,56.276 8.325,56.17 8.301,56.065 8.289,55.943 8.289,55.807 c 0,-0.312 0.047,-0.527 0.141,-0.645 0.094,-0.116 0.219,-0.175 0.376,-0.175 0.02,0 0.046,10e-4 0.079,0.003 l -0.066,0.579 c -0.053,0.015 -0.09,0.037 -0.111,0.067 -0.029,0.044 -0.045,0.099 -0.045,0.165 0,0.086 0.023,0.15 0.068,0.192 0.047,0.043 0.127,0.064 0.24,0.064 H 9.207 C 9.138,55.998 9.087,55.94 9.057,55.881 9.007,55.789 8.983,55.69 8.983,55.583 c 0,-0.208 0.092,-0.376 0.273,-0.504 0.129,-0.091 0.299,-0.136 0.511,-0.136 0.242,0 0.427,0.059 0.554,0.176 0.127,0.117 0.19,0.271 0.19,0.46 0,0.121 -0.021,0.221 -0.062,0.299 -0.041,0.079 -0.109,0.152 -0.203,0.221 h 0.23 z M 9.721,55.54 c -0.112,0 -0.195,0.023 -0.249,0.071 -0.055,0.048 -0.081,0.111 -0.081,0.189 0,0.074 0.027,0.136 0.084,0.187 0.056,0.05 0.141,0.075 0.254,0.075 0.113,0 0.2,-0.026 0.26,-0.079 0.061,-0.053 0.09,-0.117 0.09,-0.193 0,-0.076 -0.027,-0.137 -0.082,-0.183 C 9.94,55.562 9.849,55.54 9.721,55.54 z"
                 id="802-g" /><path
                 d="m 11.104,57.377 v 0.305 l -2.221,-0.54 v -0.301 l 2.221,0.536 z"
                 id="path343" /><path
                 d="m 10.476,57.853 v 0.556 h -0.253 c 0.103,0.083 0.177,0.167 0.222,0.252 0.044,0.085 0.066,0.188 0.066,0.311 0,0.165 -0.049,0.294 -0.147,0.388 -0.098,0.093 -0.25,0.14 -0.455,0.14 H 8.92 v -0.6 h 0.855 c 0.098,0 0.167,-0.018 0.207,-0.054 0.041,-0.036 0.061,-0.087 0.061,-0.152 0,-0.072 -0.027,-0.131 -0.082,-0.176 C 9.906,58.473 9.809,58.451 9.667,58.451 H 8.92 v -0.597 h 1.556 z"
                 id="802-n" /></g></g><g
             transform="matrix(0,0.01,-0.01,0,19,27.5)"
             id="fcc-logo"><path
               d="M -59.586,362.388 V 222.066 H 80.822 297.033 V 81.653 H -59.587 C -137.163,81.653 -200,144.49 -200,222.066 V 1000 H -59.587 V 600.674 H 221.231 V 476.521 H -59.586 V 362.388 z"
               id="fcc-logo-f" /><path
               d="m 938.019,730.976 v -0.17 c -55.172,72.939 -141.925,120.868 -240.477,120.868 -167.023,0 -302.466,-135.355 -302.466,-302.548 0,-167.028 135.442,-302.466 302.466,-302.466 98.551,0 185.304,47.841 240.477,120.868 h 171.403 C 1039.511,209.261 881.669,98.5 697.542,98.5 c -248.98,0 -450.709,201.811 -450.709,450.791 0,248.897 201.817,450.709 450.709,450.709 184.209,0 341.969,-110.761 411.962,-269.024 H 938.019 z"
               id="fcc-logo-c-outer" /><path
               d="m 694.257,418.655 c 40.346,0 75.89,18.698 99.898,47.42 H 954.526 C 919.151,355.484 816.642,274.792 694.257,274.792 c -151.524,0 -274.417,122.889 -274.417,274.417 0,151.611 122.893,274.499 274.417,274.499 122.384,0 224.807,-80.687 260.187,-191.283 H 794.069 v -0.164 c -23.92,28.722 -59.547,47.42 -99.811,47.42 -72.014,0 -130.471,-58.37 -130.471,-130.553 -0.001,-72.02 58.456,-130.473 130.47,-130.473 z"
               id="fcc-logo-c-inner" /></g></g></g></g></g><g
     transform="translate(115.30919,15.697435)"
     id="g350"
     style="display:none"><g
       id="female-headers"><g
         transform="matrix(0,1,-1,0,7.2,17)"
         id="female-headers-left"><g
           id="female-headers-left-1x08"><rect
             width="57.599998"
             height="7.1999998"
             x="0"
             y="0"
             id="rect355"
             style="fill:#404040" /><rect
             width="2.7809999"
             height="2.7820001"
             x="2.21"
             y="2.2090001"
             id="female-RST" /><polygon
             points="1.185,1.184 2.208,2.209 4.991,2.209 6.017,1.184 "
             id="polygon358"
             style="fill:#2a2a29" /><polygon
             points="6.017,1.184 4.991,2.212 4.991,4.993 6.017,6.016 "
             id="polygon360"
             style="fill:#474747" /><polygon
             points="6.016,6.016 4.99,4.993 2.208,4.993 1.185,6.016 "
             id="polygon362"
             style="fill:#595959" /><polygon
             points="1.183,6.016 2.208,4.991 2.208,2.209 1.183,1.184 "
             id="polygon364"
             style="fill:#373737" /><rect
             width="2.7809999"
             height="2.7820001"
             x="9.4099998"
             y="2.2090001"
             id="female-A0" /><polygon
             points="8.384,1.184 9.408,2.209 12.192,2.209 13.217,1.184 "
             id="polygon367"
             style="fill:#2a2a29" /><polygon
             points="13.217,1.184 12.192,2.212 12.192,4.993 13.217,6.016 "
             id="polygon369"
             style="fill:#474747" /><polygon
             points="13.215,6.016 12.191,4.993 9.408,4.993 8.384,6.016 "
             id="polygon371"
             style="fill:#595959" /><polygon
             points="8.382,6.016 9.408,4.991 9.408,2.209 8.382,1.184 "
             id="polygon373"
             style="fill:#373737" /><rect
             width="2.7809999"
             height="2.7820001"
             x="16.611"
             y="2.2090001"
             id="female-D0" /><polygon
             points="15.584,1.184 16.609,2.209 19.392,2.209 20.416,1.184 "
             id="polygon376"
             style="fill:#2a2a29" /><polygon
             points="20.416,1.184 19.392,2.212 19.392,4.993 20.416,6.016 "
             id="polygon378"
             style="fill:#474747" /><polygon
             points="20.415,6.016 19.391,4.993 16.609,4.993 15.584,6.016 "
             id="polygon380"
             style="fill:#595959" /><polygon
             points="15.582,6.016 16.609,4.991 16.609,2.209 15.582,1.184 "
             id="polygon382"
             style="fill:#373737" /><rect
             width="2.7809999"
             height="2.7820001"
             x="23.811001"
             y="2.2090001"
             id="female-D5" /><polygon
             points="22.784,1.184 23.809,2.209 26.592,2.209 27.616,1.184 "
             id="polygon385"
             style="fill:#2a2a29" /><polygon
             points="27.616,1.184 26.592,2.212 26.592,4.993 27.616,6.016 "
             id="polygon387"
             style="fill:#474747" /><polygon
             points="27.615,6.016 26.59,4.993 23.809,4.993 22.784,6.016 "
             id="polygon389"
             style="fill:#595959" /><polygon
             points="22.782,6.016 23.809,4.991 23.809,2.209 22.782,1.184 "
             id="polygon391"
             style="fill:#373737" /><rect
             width="2.7809999"
             height="2.7820001"
             x="31.01"
             y="2.2090001"
             id="female-D6" /><polygon
             points="29.985,1.184 31.008,2.209 33.791,2.209 34.817,1.184 "
             id="polygon394"
             style="fill:#2a2a29" /><polygon
             points="34.817,1.184 33.791,2.212 33.791,4.993 34.817,6.016 "
             id="polygon396"
             style="fill:#474747" /><polygon
             points="34.816,6.016 33.79,4.993 31.008,4.993 29.985,6.016 "
             id="polygon398"
             style="fill:#595959" /><polygon
             points="29.983,6.016 31.008,4.991 31.008,2.209 29.983,1.184 "
             id="polygon400"
             style="fill:#373737" /><rect
             width="2.7809999"
             height="2.7820001"
             x="38.209999"
             y="2.2090001"
             id="female-D7" /><polygon
             points="37.185,1.184 38.208,2.209 40.991,2.209 42.017,1.184 "
             id="polygon403"
             style="fill:#2a2a29" /><polygon
             points="42.017,1.184 40.991,2.212 40.991,4.993 42.017,6.016 "
             id="polygon405"
             style="fill:#474747" /><polygon
             points="42.016,6.016 40.99,4.993 38.208,4.993 37.185,6.016 "
             id="polygon407"
             style="fill:#595959" /><polygon
             points="37.183,6.016 38.208,4.991 38.208,2.209 37.183,1.184 "
             id="polygon409"
             style="fill:#373737" /><rect
             width="2.7809999"
             height="2.7820001"
             x="45.41"
             y="2.2090001"
             id="female-D8" /><polygon
             points="44.384,1.184 45.408,2.209 48.192,2.209 49.217,1.184 "
             id="polygon412"
             style="fill:#2a2a29" /><polygon
             points="49.217,1.184 48.192,2.212 48.192,4.993 49.217,6.016 "
             id="polygon414"
             style="fill:#474747" /><polygon
             points="49.215,6.016 48.191,4.993 45.408,4.993 44.384,6.016 "
             id="polygon416"
             style="fill:#595959" /><polygon
             points="44.382,6.016 45.408,4.991 45.408,2.209 44.382,1.184 "
             id="polygon418"
             style="fill:#373737" /><rect
             width="2.7809999"
             height="2.7820001"
             x="52.611"
             y="2.2090001"
             id="female-3V3" /><polygon
             points="51.584,1.184 52.609,2.209 55.392,2.209 56.416,1.184 "
             id="polygon421"
             style="fill:#2a2a29" /><polygon
             points="56.416,1.184 55.392,2.212 55.392,4.993 56.416,6.016 "
             id="polygon423"
             style="fill:#474747" /><polygon
             points="56.415,6.016 55.391,4.993 52.609,4.993 51.584,6.016 "
             id="polygon425"
             style="fill:#595959" /><polygon
             points="51.582,6.016 52.609,4.991 52.609,2.209 51.582,1.184 "
             id="polygon427"
             style="fill:#373737" /></g></g><g
         transform="matrix(0,1,-1,0,72,17)"
         id="female-headers-right"><g
           id="female-headers-right-1x08"><rect
             width="57.599998"
             height="7.1999998"
             x="0"
             y="0"
             id="rect431"
             style="fill:#404040" /><rect
             width="2.7809999"
             height="2.7820001"
             x="52.611"
             y="2.2090001"
             id="female-5V" /><polygon
             points="51.584,1.184 52.609,2.209 55.392,2.209 56.416,1.184 "
             id="polygon434"
             style="fill:#2a2a29" /><polygon
             points="56.416,1.184 55.392,2.212 55.392,4.993 56.416,6.016 "
             id="polygon436"
             style="fill:#474747" /><polygon
             points="56.415,6.016 55.391,4.993 52.609,4.993 51.584,6.016 "
             id="polygon438"
             style="fill:#595959" /><polygon
             points="51.582,6.016 52.609,4.991 52.609,2.209 51.582,1.184 "
             id="polygon440"
             style="fill:#373737" /><rect
             width="2.7809999"
             height="2.7820001"
             x="45.41"
             y="2.2090001"
             id="female-G" /><polygon
             points="44.384,1.184 45.408,2.209 48.192,2.209 49.217,1.184 "
             id="polygon443"
             style="fill:#2a2a29" /><polygon
             points="49.217,1.184 48.192,2.212 48.192,4.993 49.217,6.016 "
             id="polygon445"
             style="fill:#474747" /><polygon
             points="49.215,6.016 48.191,4.993 45.408,4.993 44.384,6.016 "
             id="polygon447"
             style="fill:#595959" /><polygon
             points="44.382,6.016 45.408,4.991 45.408,2.209 44.382,1.184 "
             id="polygon449"
             style="fill:#373737" /><rect
             width="2.7809999"
             height="2.7820001"
             x="38.209999"
             y="2.2090001"
             id="female-D4" /><polygon
             points="37.185,1.184 38.208,2.209 40.991,2.209 42.017,1.184 "
             id="polygon452"
             style="fill:#2a2a29" /><polygon
             points="42.017,1.184 40.991,2.212 40.991,4.993 42.017,6.016 "
             id="polygon454"
             style="fill:#474747" /><polygon
             points="42.016,6.016 40.99,4.993 38.208,4.993 37.185,6.016 "
             id="polygon456"
             style="fill:#595959" /><polygon
             points="37.183,6.016 38.208,4.991 38.208,2.209 37.183,1.184 "
             id="polygon458"
             style="fill:#373737" /><rect
             width="2.7809999"
             height="2.7820001"
             x="31.01"
             y="2.2090001"
             id="female-D3" /><polygon
             points="29.985,1.184 31.008,2.209 33.791,2.209 34.817,1.184 "
             id="polygon461"
             style="fill:#2a2a29" /><polygon
             points="34.817,1.184 33.791,2.212 33.791,4.993 34.817,6.016 "
             id="polygon463"
             style="fill:#474747" /><polygon
             points="34.816,6.016 33.79,4.993 31.008,4.993 29.985,6.016 "
             id="polygon465"
             style="fill:#595959" /><polygon
             points="29.983,6.016 31.008,4.991 31.008,2.209 29.983,1.184 "
             id="polygon467"
             style="fill:#373737" /><rect
             width="2.7809999"
             height="2.7820001"
             x="23.811001"
             y="2.2090001"
             id="female-D2" /><polygon
             points="22.784,1.184 23.809,2.209 26.592,2.209 27.616,1.184 "
             id="polygon470"
             style="fill:#2a2a29" /><polygon
             points="27.616,1.184 26.592,2.212 26.592,4.993 27.616,6.016 "
             id="polygon472"
             style="fill:#474747" /><polygon
             points="27.615,6.016 26.59,4.993 23.809,4.993 22.784,6.016 "
             id="polygon474"
             style="fill:#595959" /><polygon
             points="22.782,6.016 23.809,4.991 23.809,2.209 22.782,1.184 "
             id="polygon476"
             style="fill:#373737" /><rect
             width="2.7809999"
             height="2.7820001"
             x="16.611"
             y="2.2090001"
             id="female-D1" /><polygon
             points="15.584,1.184 16.609,2.209 19.392,2.209 20.416,1.184 "
             id="polygon479"
             style="fill:#2a2a29" /><polygon
             points="20.416,1.184 19.392,2.212 19.392,4.993 20.416,6.016 "
             id="polygon481"
             style="fill:#474747" /><polygon
             points="20.415,6.016 19.391,4.993 16.609,4.993 15.584,6.016 "
             id="polygon483"
             style="fill:#595959" /><polygon
             points="15.582,6.016 16.609,4.991 16.609,2.209 15.582,1.184 "
             id="polygon485"
             style="fill:#373737" /><rect
             width="2.7809999"
             height="2.7820001"
             x="9.4099998"
             y="2.2090001"
             id="female-RX" /><polygon
             points="8.384,1.184 9.408,2.209 12.192,2.209 13.217,1.184 "
             id="polygon488"
             style="fill:#2a2a29" /><polygon
             points="13.217,1.184 12.192,2.212 12.192,4.993 13.217,6.016 "
             id="polygon490"
             style="fill:#474747" /><polygon
             points="13.215,6.016 12.191,4.993 9.408,4.993 8.384,6.016 "
             id="polygon492"
             style="fill:#595959" /><polygon
             points="8.382,6.016 9.408,4.991 9.408,2.209 8.382,1.184 "
             id="polygon494"
             style="fill:#373737" /><rect
             width="2.7809999"
             height="2.7820001"
             x="2.21"
             y="2.2090001"
             id="female-TX" /><polygon
             points="1.185,1.184 2.208,2.209 4.991,2.209 6.017,1.184 "
             id="polygon497"
             style="fill:#2a2a29" /><polygon
             points="6.017,1.184 4.991,2.212 4.991,4.993 6.017,6.016 "
             id="polygon499"
             style="fill:#474747" /><polygon
             points="6.016,6.016 4.99,4.993 2.208,4.993 1.185,6.016 "
             id="polygon501"
             style="fill:#595959" /><polygon
             points="1.183,6.016 2.208,4.991 2.208,2.209 1.183,1.184 "
             id="polygon503"
             style="fill:#373737" /></g></g></g></g><g
     transform="translate(115.30919,15.697435)"
     id="g505"
     style="display:none"><g
       id="male-headers-below"><g
         id="male-header-below-left"><g
           transform="matrix(0,1,-1,0,7.2,17)"
           id="male-header-below-left-solder"
           style="fill:#9a916c"><rect
             width="3"
             height="3"
             x="2.0999999"
             y="2.0999999"
             id="rect510" /><rect
             width="3"
             height="3"
             x="9.3000002"
             y="2.0999999"
             id="rect512" /><rect
             width="3"
             height="3"
             x="16.5"
             y="2.0999999"
             id="rect514" /><rect
             width="3"
             height="3"
             x="23.700001"
             y="2.0999999"
             id="rect516" /><rect
             width="3"
             height="3"
             x="30.9"
             y="2.0999999"
             id="rect518" /><rect
             width="3"
             height="3"
             x="38.099998"
             y="2.0999999"
             id="rect520" /><rect
             width="3"
             height="3"
             x="45.299999"
             y="2.0999999"
             id="rect522" /><rect
             width="3"
             height="3"
             x="52.5"
             y="2.0999999"
             id="rect524" /></g><g
           id="male-header-below-pins-left"><g
             id="pin-3V3"><rect
               width="2.3"
               height="2.3"
               x="2.5"
               y="69.900002"
               id="rect528"
               style="fill:#8d8c8c" /><rect
               width="1.2"
               height="1.2"
               x="3"
               y="70.400002"
               id="C"
               style="fill:#8c8663" /><polygon
               points="4.7,69.9 4.2,70.4 4.2,71.6 4.7,72.1 "
               id="R"
               style="fill:#b8af82" /><polygon
               points="3,71.6 4.2,71.6 4.7,72.1 2.5,72.1 "
               id="B"
               style="fill:#80795b" /><polygon
               points="3,70.4 3,71.6 2.5,72.1 2.5,69.9 "
               id="L"
               style="fill:#5e5b43" /><polygon
               points="4.7,69.9 4.2,70.4 3,70.4 2.5,69.9 "
               id="T"
               style="fill:#9a916c" /></g><g
             id="pin-D8"><rect
               width="2.3"
               height="2.3"
               x="2.5"
               y="62.700001"
               id="rect536"
               style="fill:#8d8c8c" /><rect
               width="1.2"
               height="1.2"
               x="3"
               y="63.200001"
               id="rect538"
               style="fill:#8c8663" /><polygon
               points="4.7,62.7 4.2,63.2 4.2,64.4 4.7,64.9 "
               id="polygon540"
               style="fill:#b8af82" /><polygon
               points="3,64.4 4.2,64.4 4.7,64.9 2.5,64.9 "
               id="polygon542"
               style="fill:#80795b" /><polygon
               points="3,63.2 3,64.4 2.5,64.9 2.5,62.7 "
               id="polygon544"
               style="fill:#5e5b43" /><polygon
               points="4.7,62.7 4.2,63.2 3,63.2 2.5,62.7 "
               id="polygon546"
               style="fill:#9a916c" /></g><g
             id="pin-D7"><rect
               width="2.3"
               height="2.3"
               x="2.5"
               y="55.5"
               id="rect549"
               style="fill:#8d8c8c" /><rect
               width="1.2"
               height="1.2"
               x="3"
               y="56"
               id="rect551"
               style="fill:#8c8663" /><polygon
               points="4.7,55.5 4.2,56 4.2,57.2 4.7,57.7 "
               id="polygon553"
               style="fill:#b8af82" /><polygon
               points="3,57.2 4.2,57.2 4.7,57.7 2.5,57.7 "
               id="polygon555"
               style="fill:#80795b" /><polygon
               points="3,56 3,57.2 2.5,57.7 2.5,55.5 "
               id="polygon557"
               style="fill:#5e5b43" /><polygon
               points="4.7,55.5 4.2,56 3,56 2.5,55.5 "
               id="polygon559"
               style="fill:#9a916c" /></g><g
             id="pin-D6"><rect
               width="2.3"
               height="2.3"
               x="2.5"
               y="48.299999"
               id="rect562"
               style="fill:#8d8c8c" /><rect
               width="1.2"
               height="1.2"
               x="3"
               y="48.799999"
               id="rect564"
               style="fill:#8c8663" /><polygon
               points="4.7,48.3 4.2,48.8 4.2,50 4.7,50.5 "
               id="polygon566"
               style="fill:#b8af82" /><polygon
               points="3,50 4.2,50 4.7,50.5 2.5,50.5 "
               id="polygon568"
               style="fill:#80795b" /><polygon
               points="3,48.8 3,50 2.5,50.5 2.5,48.3 "
               id="polygon570"
               style="fill:#5e5b43" /><polygon
               points="4.7,48.3 4.2,48.8 3,48.8 2.5,48.3 "
               id="polygon572"
               style="fill:#9a916c" /></g><g
             id="pin-D5"><rect
               width="2.3"
               height="2.3"
               x="2.5"
               y="41.099998"
               id="rect575"
               style="fill:#8d8c8c" /><rect
               width="1.2"
               height="1.2"
               x="3"
               y="41.599998"
               id="rect577"
               style="fill:#8c8663" /><polygon
               points="4.7,41.1 4.2,41.6 4.2,42.8 4.7,43.3 "
               id="polygon579"
               style="fill:#b8af82" /><polygon
               points="3,42.8 4.2,42.8 4.7,43.3 2.5,43.3 "
               id="polygon581"
               style="fill:#80795b" /><polygon
               points="3,41.6 3,42.8 2.5,43.3 2.5,41.1 "
               id="polygon583"
               style="fill:#5e5b43" /><polygon
               points="4.7,41.1 4.2,41.6 3,41.6 2.5,41.1 "
               id="polygon585"
               style="fill:#9a916c" /></g><g
             id="pin-D0"><rect
               width="2.3"
               height="2.3"
               x="2.5"
               y="33.900002"
               id="rect588"
               style="fill:#8d8c8c" /><rect
               width="1.2"
               height="1.2"
               x="3"
               y="34.400002"
               id="rect590"
               style="fill:#8c8663" /><polygon
               points="4.7,33.9 4.2,34.4 4.2,35.6 4.7,36.1 "
               id="polygon592"
               style="fill:#b8af82" /><polygon
               points="3,35.6 4.2,35.6 4.7,36.1 2.5,36.1 "
               id="polygon594"
               style="fill:#80795b" /><polygon
               points="3,34.4 3,35.6 2.5,36.1 2.5,33.9 "
               id="polygon596"
               style="fill:#5e5b43" /><polygon
               points="4.7,33.9 4.2,34.4 3,34.4 2.5,33.9 "
               id="polygon598"
               style="fill:#9a916c" /></g><g
             id="pin-A0"><rect
               width="2.3"
               height="2.3"
               x="2.5"
               y="26.700001"
               id="rect601"
               style="fill:#8d8c8c" /><rect
               width="1.2"
               height="1.2"
               x="3"
               y="27.200001"
               id="rect603"
               style="fill:#8c8663" /><polygon
               points="4.7,26.7 4.2,27.2 4.2,28.4 4.7,28.9 "
               id="polygon605"
               style="fill:#b8af82" /><polygon
               points="3,28.4 4.2,28.4 4.7,28.9 2.5,28.9 "
               id="polygon607"
               style="fill:#80795b" /><polygon
               points="3,27.2 3,28.4 2.5,28.9 2.5,26.7 "
               id="polygon609"
               style="fill:#5e5b43" /><polygon
               points="4.7,26.7 4.2,27.2 3,27.2 2.5,26.7 "
               id="polygon611"
               style="fill:#9a916c" /></g><g
             id="pin-RST"><rect
               width="2.3"
               height="2.3"
               x="2.5"
               y="19.5"
               id="rect614"
               style="fill:#8d8c8c" /><rect
               width="1.2"
               height="1.2"
               x="3"
               y="20"
               id="rect616"
               style="fill:#8c8663" /><polygon
               points="4.7,19.5 4.2,20 4.2,21.2 4.7,21.7 "
               id="polygon618"
               style="fill:#b8af82" /><polygon
               points="3,21.2 4.2,21.2 4.7,21.7 2.5,21.7 "
               id="polygon620"
               style="fill:#80795b" /><polygon
               points="3,20 3,21.2 2.5,21.7 2.5,19.5 "
               id="polygon622"
               style="fill:#5e5b43" /><polygon
               points="4.7,19.5 4.2,20 3,20 2.5,19.5 "
               id="polygon624"
               style="fill:#9a916c" /></g></g></g><g
         id="male-header-below-right"><g
           transform="matrix(0,1,-1,0,72,17)"
           id="male-header-below-right-solder"
           style="fill:#9a916c"><rect
             width="3"
             height="3"
             x="2.0999999"
             y="2.0999999"
             id="rect628" /><rect
             width="3"
             height="3"
             x="9.3000002"
             y="2.0999999"
             id="rect630" /><rect
             width="3"
             height="3"
             x="16.5"
             y="2.0999999"
             id="rect632" /><rect
             width="3"
             height="3"
             x="23.700001"
             y="2.0999999"
             id="rect634" /><rect
             width="3"
             height="3"
             x="30.9"
             y="2.0999999"
             id="rect636" /><rect
             width="3"
             height="3"
             x="38.099998"
             y="2.0999999"
             id="rect638" /><rect
             width="3"
             height="3"
             x="45.299999"
             y="2.0999999"
             id="rect640" /><rect
             width="3"
             height="3"
             x="52.5"
             y="2.0999999"
             id="rect642" /></g><g
           id="male-header-below-right-pins"><g
             id="pin-5V"><rect
               width="2.3"
               height="2.3"
               x="67.300003"
               y="69.900002"
               id="rect646"
               style="fill:#8d8c8c" /><rect
               width="1.2"
               height="1.2"
               x="67.800003"
               y="70.400002"
               id="rect648"
               style="fill:#8c8663" /><polygon
               points="69.5,69.9 69,70.4 69,71.6 69.5,72.1 "
               id="polygon650"
               style="fill:#b8af82" /><polygon
               points="67.8,71.6 69,71.6 69.5,72.1 67.3,72.1 "
               id="polygon652"
               style="fill:#80795b" /><polygon
               points="67.8,70.4 67.8,71.6 67.3,72.1 67.3,69.9 "
               id="polygon654"
               style="fill:#5e5b43" /><polygon
               points="69.5,69.9 69,70.4 67.8,70.4 67.3,69.9 "
               id="polygon656"
               style="fill:#9a916c" /></g><g
             id="pin-G"><rect
               width="2.3"
               height="2.3"
               x="67.300003"
               y="62.700001"
               id="rect659"
               style="fill:#8d8c8c" /><rect
               width="1.2"
               height="1.2"
               x="67.800003"
               y="63.200001"
               id="rect661"
               style="fill:#8c8663" /><polygon
               points="69.5,62.7 69,63.2 69,64.4 69.5,64.9 "
               id="polygon663"
               style="fill:#b8af82" /><polygon
               points="67.8,64.4 69,64.4 69.5,64.9 67.3,64.9 "
               id="polygon665"
               style="fill:#80795b" /><polygon
               points="67.8,63.2 67.8,64.4 67.3,64.9 67.3,62.7 "
               id="polygon667"
               style="fill:#5e5b43" /><polygon
               points="69.5,62.7 69,63.2 67.8,63.2 67.3,62.7 "
               id="polygon669"
               style="fill:#9a916c" /></g><g
             id="pin-D4"><rect
               width="2.3"
               height="2.3"
               x="67.300003"
               y="55.5"
               id="rect672"
               style="fill:#8d8c8c" /><rect
               width="1.2"
               height="1.2"
               x="67.800003"
               y="56"
               id="rect674"
               style="fill:#8c8663" /><polygon
               points="69.5,55.5 69,56 69,57.2 69.5,57.7 "
               id="polygon676"
               style="fill:#b8af82" /><polygon
               points="67.8,57.2 69,57.2 69.5,57.7 67.3,57.7 "
               id="polygon678"
               style="fill:#80795b" /><polygon
               points="67.8,56 67.8,57.2 67.3,57.7 67.3,55.5 "
               id="polygon680"
               style="fill:#5e5b43" /><polygon
               points="69.5,55.5 69,56 67.8,56 67.3,55.5 "
               id="polygon682"
               style="fill:#9a916c" /></g><g
             id="pin-D3"><rect
               width="2.3"
               height="2.3"
               x="67.300003"
               y="48.299999"
               id="rect685"
               style="fill:#8d8c8c" /><rect
               width="1.2"
               height="1.2"
               x="67.800003"
               y="48.799999"
               id="rect687"
               style="fill:#8c8663" /><polygon
               points="69.5,48.3 69,48.8 69,50 69.5,50.5 "
               id="polygon689"
               style="fill:#b8af82" /><polygon
               points="67.8,50 69,50 69.5,50.5 67.3,50.5 "
               id="polygon691"
               style="fill:#80795b" /><polygon
               points="67.8,48.8 67.8,50 67.3,50.5 67.3,48.3 "
               id="polygon693"
               style="fill:#5e5b43" /><polygon
               points="69.5,48.3 69,48.8 67.8,48.8 67.3,48.3 "
               id="polygon695"
               style="fill:#9a916c" /></g><g
             id="pin-D2"><rect
               width="2.3"
               height="2.3"
               x="67.300003"
               y="41.099998"
               id="rect698"
               style="fill:#8d8c8c" /><rect
               width="1.2"
               height="1.2"
               x="67.800003"
               y="41.599998"
               id="rect700"
               style="fill:#8c8663" /><polygon
               points="69.5,41.1 69,41.6 69,42.8 69.5,43.3 "
               id="polygon702"
               style="fill:#b8af82" /><polygon
               points="67.8,42.8 69,42.8 69.5,43.3 67.3,43.3 "
               id="polygon704"
               style="fill:#80795b" /><polygon
               points="67.8,41.6 67.8,42.8 67.3,43.3 67.3,41.1 "
               id="polygon706"
               style="fill:#5e5b43" /><polygon
               points="69.5,41.1 69,41.6 67.8,41.6 67.3,41.1 "
               id="polygon708"
               style="fill:#9a916c" /></g><g
             id="pin-D1"><rect
               width="2.3"
               height="2.3"
               x="67.300003"
               y="33.900002"
               id="rect711"
               style="fill:#8d8c8c" /><rect
               width="1.2"
               height="1.2"
               x="67.800003"
               y="34.400002"
               id="rect713"
               style="fill:#8c8663" /><polygon
               points="69.5,33.9 69,34.4 69,35.6 69.5,36.1 "
               id="polygon715"
               style="fill:#b8af82" /><polygon
               points="67.8,35.6 69,35.6 69.5,36.1 67.3,36.1 "
               id="polygon717"
               style="fill:#80795b" /><polygon
               points="67.8,34.4 67.8,35.6 67.3,36.1 67.3,33.9 "
               id="polygon719"
               style="fill:#5e5b43" /><polygon
               points="69.5,33.9 69,34.4 67.8,34.4 67.3,33.9 "
               id="polygon721"
               style="fill:#9a916c" /></g><g
             id="pin-RX"><rect
               width="2.3"
               height="2.3"
               x="67.300003"
               y="26.700001"
               id="rect724"
               style="fill:#8d8c8c" /><rect
               width="1.2"
               height="1.2"
               x="67.800003"
               y="27.200001"
               id="rect726"
               style="fill:#8c8663" /><polygon
               points="69.5,26.7 69,27.2 69,28.4 69.5,29 "
               id="polygon728"
               style="fill:#b8af82" /><polygon
               points="67.8,28.4 69,28.4 69.5,29 67.3,29 "
               id="polygon730"
               style="fill:#80795b" /><polygon
               points="67.8,27.2 67.8,28.4 67.3,29 67.3,26.7 "
               id="polygon732"
               style="fill:#5e5b43" /><polygon
               points="69.5,26.7 69,27.2 67.8,27.2 67.3,26.7 "
               id="polygon734"
               style="fill:#9a916c" /></g><g
             id="pin-TX"><rect
               width="2.3"
               height="2.3"
               x="67.300003"
               y="19.5"
               id="rect737"
               style="fill:#8d8c8c" /><rect
               width="1.2"
               height="1.2"
               x="67.800003"
               y="20"
               id="rect739"
               style="fill:#8c8663" /><polygon
               points="69.5,19.5 69,20 69,21.2 69.5,21.7 "
               id="polygon741"
               style="fill:#b8af82" /><polygon
               points="67.8,21.2 69,21.2 69.5,21.7 67.3,21.7 "
               id="polygon743"
               style="fill:#80795b" /><polygon
               points="67.8,20 67.8,21.2 67.3,21.7 67.3,19.5 "
               id="polygon745"
               style="fill:#5e5b43" /><polygon
               points="69.5,19.5 69,20 67.8,20 67.3,19.5 "
               id="polygon747"
               style="fill:#9a916c" /></g></g></g></g></g><g
     transform="translate(115.30919,15.697435)"
     id="g749"
     style="display:none"><g
       id="male-headers-above"><g
         id="male-header-above-left"><g
           id="male-header-above-left-black-plastic"
           style="fill:#222222"><polygon
             points="0,73.1 1.6,74.6 5.6,74.6 7.2,73.1 7.2,72.9 7.2,69.1 7.2,68.9 5.6,67.4 1.6,67.4 0,68.9 0,69.1 0,72.9 "
             id="polygon754" /><polygon
             points="0,65.9 1.6,67.4 5.6,67.4 7.2,65.9 7.2,65.7 7.2,61.9 7.2,61.7 5.6,60.2 1.6,60.2 0,61.7 0,61.9 0,65.7 "
             id="polygon756" /><polygon
             points="0,58.7 1.6,60.2 5.6,60.2 7.2,58.7 7.2,58.5 7.2,54.7 7.2,54.5 5.6,53 1.6,53 0,54.5 0,54.7 0,58.5 "
             id="polygon758" /><polygon
             points="0,51.5 1.6,53 5.6,53 7.2,51.5 7.2,51.3 7.2,47.5 7.2,47.3 5.6,45.8 1.6,45.8 0,47.3 0,47.5 0,51.3 "
             id="polygon760" /><polygon
             points="0,44.3 1.6,45.8 5.6,45.8 7.2,44.3 7.2,44.1 7.2,40.3 7.2,40.1 5.6,38.6 1.6,38.6 0,40.1 0,40.3 0,44.1 "
             id="polygon762" /><polygon
             points="0,37.1 1.6,38.6 5.6,38.6 7.2,37.1 7.2,36.9 7.2,33.1 7.2,32.9 5.6,31.4 1.6,31.4 0,32.9 0,33.1 0,36.9 "
             id="polygon764" /><polygon
             points="0,29.9 1.6,31.4 5.6,31.4 7.2,29.9 7.2,29.7 7.2,25.9 7.2,25.7 5.6,24.2 1.6,24.2 0,25.7 0,25.9 0,29.7 "
             id="polygon766" /><polygon
             points="0,22.7 1.6,24.2 5.6,24.2 7.2,22.7 7.2,22.5 7.2,18.7 7.2,18.5 5.6,17 1.6,17 0,18.5 0,18.7 0,22.5 "
             id="polygon768" /></g><g
           id="male-header-above-left-pins"><g
             id="g771"><rect
               width="2.3"
               height="2.3"
               x="2.5"
               y="69.900002"
               id="rect773"
               style="fill:#8d8c8c" /><rect
               width="1.2"
               height="1.2"
               x="3"
               y="70.400002"
               id="rect775"
               style="fill:#8c8663" /><polygon
               points="4.7,69.9 4.2,70.4 4.2,71.6 4.7,72.1 "
               id="polygon777"
               style="fill:#b8af82" /><polygon
               points="3,71.6 4.2,71.6 4.7,72.1 2.5,72.1 "
               id="polygon779"
               style="fill:#80795b" /><polygon
               points="3,70.4 3,71.6 2.5,72.1 2.5,69.9 "
               id="polygon781"
               style="fill:#5e5b43" /><polygon
               points="4.7,69.9 4.2,70.4 3,70.4 2.5,69.9 "
               id="polygon783"
               style="fill:#9a916c" /></g><g
             id="g785"><rect
               width="2.3"
               height="2.3"
               x="2.5"
               y="62.700001"
               id="rect787"
               style="fill:#8d8c8c" /><rect
               width="1.2"
               height="1.2"
               x="3"
               y="63.200001"
               id="rect789"
               style="fill:#8c8663" /><polygon
               points="4.7,62.7 4.2,63.2 4.2,64.4 4.7,64.9 "
               id="polygon791"
               style="fill:#b8af82" /><polygon
               points="3,64.4 4.2,64.4 4.7,64.9 2.5,64.9 "
               id="polygon793"
               style="fill:#80795b" /><polygon
               points="3,63.2 3,64.4 2.5,64.9 2.5,62.7 "
               id="polygon795"
               style="fill:#5e5b43" /><polygon
               points="4.7,62.7 4.2,63.2 3,63.2 2.5,62.7 "
               id="polygon797"
               style="fill:#9a916c" /></g><g
             id="g799"><rect
               width="2.3"
               height="2.3"
               x="2.5"
               y="55.5"
               id="rect801"
               style="fill:#8d8c8c" /><rect
               width="1.2"
               height="1.2"
               x="3"
               y="56"
               id="rect803"
               style="fill:#8c8663" /><polygon
               points="4.7,55.5 4.2,56 4.2,57.2 4.7,57.7 "
               id="polygon805"
               style="fill:#b8af82" /><polygon
               points="3,57.2 4.2,57.2 4.7,57.7 2.5,57.7 "
               id="polygon807"
               style="fill:#80795b" /><polygon
               points="3,56 3,57.2 2.5,57.7 2.5,55.5 "
               id="polygon809"
               style="fill:#5e5b43" /><polygon
               points="4.7,55.5 4.2,56 3,56 2.5,55.5 "
               id="polygon811"
               style="fill:#9a916c" /></g><g
             id="g813"><rect
               width="2.3"
               height="2.3"
               x="2.5"
               y="48.299999"
               id="rect815"
               style="fill:#8d8c8c" /><rect
               width="1.2"
               height="1.2"
               x="3"
               y="48.799999"
               id="rect817"
               style="fill:#8c8663" /><polygon
               points="4.7,48.3 4.2,48.8 4.2,50 4.7,50.5 "
               id="polygon819"
               style="fill:#b8af82" /><polygon
               points="3,50 4.2,50 4.7,50.5 2.5,50.5 "
               id="polygon821"
               style="fill:#80795b" /><polygon
               points="3,48.8 3,50 2.5,50.5 2.5,48.3 "
               id="polygon823"
               style="fill:#5e5b43" /><polygon
               points="4.7,48.3 4.2,48.8 3,48.8 2.5,48.3 "
               id="polygon825"
               style="fill:#9a916c" /></g><g
             id="g827"><rect
               width="2.3"
               height="2.3"
               x="2.5"
               y="41.099998"
               id="rect829"
               style="fill:#8d8c8c" /><rect
               width="1.2"
               height="1.2"
               x="3"
               y="41.599998"
               id="rect831"
               style="fill:#8c8663" /><polygon
               points="4.7,41.1 4.2,41.6 4.2,42.8 4.7,43.3 "
               id="polygon833"
               style="fill:#b8af82" /><polygon
               points="3,42.8 4.2,42.8 4.7,43.3 2.5,43.3 "
               id="polygon835"
               style="fill:#80795b" /><polygon
               points="3,41.6 3,42.8 2.5,43.3 2.5,41.1 "
               id="polygon837"
               style="fill:#5e5b43" /><polygon
               points="4.7,41.1 4.2,41.6 3,41.6 2.5,41.1 "
               id="polygon839"
               style="fill:#9a916c" /></g><g
             id="g841"><rect
               width="2.3"
               height="2.3"
               x="2.5"
               y="33.900002"
               id="rect843"
               style="fill:#8d8c8c" /><rect
               width="1.2"
               height="1.2"
               x="3"
               y="34.400002"
               id="rect845"
               style="fill:#8c8663" /><polygon
               points="4.7,33.9 4.2,34.4 4.2,35.6 4.7,36.1 "
               id="polygon847"
               style="fill:#b8af82" /><polygon
               points="3,35.6 4.2,35.6 4.7,36.1 2.5,36.1 "
               id="polygon849"
               style="fill:#80795b" /><polygon
               points="3,34.4 3,35.6 2.5,36.1 2.5,33.9 "
               id="polygon851"
               style="fill:#5e5b43" /><polygon
               points="4.7,33.9 4.2,34.4 3,34.4 2.5,33.9 "
               id="polygon853"
               style="fill:#9a916c" /></g><g
             id="g855"><rect
               width="2.3"
               height="2.3"
               x="2.5"
               y="26.700001"
               id="rect857"
               style="fill:#8d8c8c" /><rect
               width="1.2"
               height="1.2"
               x="3"
               y="27.200001"
               id="rect859"
               style="fill:#8c8663" /><polygon
               points="4.7,26.7 4.2,27.2 4.2,28.4 4.7,28.9 "
               id="polygon861"
               style="fill:#b8af82" /><polygon
               points="3,28.4 4.2,28.4 4.7,28.9 2.5,28.9 "
               id="polygon863"
               style="fill:#80795b" /><polygon
               points="3,27.2 3,28.4 2.5,28.9 2.5,26.7 "
               id="polygon865"
               style="fill:#5e5b43" /><polygon
               points="4.7,26.7 4.2,27.2 3,27.2 2.5,26.7 "
               id="polygon867"
               style="fill:#9a916c" /></g><g
             id="g869"><rect
               width="2.3"
               height="2.3"
               x="2.5"
               y="19.5"
               id="rect871"
               style="fill:#8d8c8c" /><rect
               width="1.2"
               height="1.2"
               x="3"
               y="20"
               id="rect873"
               style="fill:#8c8663" /><polygon
               points="4.7,19.5 4.2,20 4.2,21.2 4.7,21.7 "
               id="polygon875"
               style="fill:#b8af82" /><polygon
               points="3,21.2 4.2,21.2 4.7,21.7 2.5,21.7 "
               id="polygon877"
               style="fill:#80795b" /><polygon
               points="3,20 3,21.2 2.5,21.7 2.5,19.5 "
               id="polygon879"
               style="fill:#5e5b43" /><polygon
               points="4.7,19.5 4.2,20 3,20 2.5,19.5 "
               id="polygon881"
               style="fill:#9a916c" /></g></g></g><g
         id="male-headers-above-right"><g
           id="male-headers-above-right-black-plastic"
           style="fill:#222222"><polygon
             points="64.8,73.1 66.4,74.6 70.4,74.6 72,73.1 72,72.9 72,69.1 72,68.9 70.4,67.4 66.4,67.4 64.8,68.9 64.8,69.1 64.8,72.9 "
             id="polygon885" /><polygon
             points="64.8,65.9 66.4,67.4 70.4,67.4 72,65.9 72,65.7 72,61.9 72,61.7 70.4,60.2 66.4,60.2 64.8,61.7 64.8,61.9 64.8,65.7 "
             id="polygon887" /><polygon
             points="64.8,58.7 66.4,60.2 70.4,60.2 72,58.7 72,58.5 72,54.7 72,54.5 70.4,53 66.4,53 64.8,54.5 64.8,54.7 64.8,58.5 "
             id="polygon889" /><polygon
             points="64.8,51.5 66.4,53 70.4,53 72,51.5 72,51.3 72,47.5 72,47.3 70.4,45.8 66.4,45.8 64.8,47.3 64.8,47.5 64.8,51.3 "
             id="polygon891" /><polygon
             points="64.8,44.3 66.4,45.8 70.4,45.8 72,44.3 72,44.1 72,40.3 72,40.1 70.4,38.6 66.4,38.6 64.8,40.1 64.8,40.3 64.8,44.1 "
             id="polygon893" /><polygon
             points="64.8,37.1 66.4,38.6 70.4,38.6 72,37.1 72,36.9 72,33.1 72,32.9 70.4,31.4 66.4,31.4 64.8,32.9 64.8,33.1 64.8,36.9 "
             id="polygon895" /><polygon
             points="64.8,29.9 66.4,31.4 70.4,31.4 72,29.9 72,29.7 72,25.9 72,25.7 70.4,24.2 66.4,24.2 64.8,25.7 64.8,25.9 64.8,29.7 "
             id="polygon897" /><polygon
             points="64.8,22.7 66.4,24.2 70.4,24.2 72,22.7 72,22.5 72,18.7 72,18.5 70.4,17 66.4,17 64.8,18.5 64.8,18.7 64.8,22.5 "
             id="polygon899" /></g><g
           id="male-headers-above-right-pins"><g
             id="g902"><rect
               width="2.3"
               height="2.3"
               x="67.300003"
               y="69.900002"
               id="rect904"
               style="fill:#8d8c8c" /><rect
               width="1.2"
               height="1.2"
               x="67.800003"
               y="70.400002"
               id="rect906"
               style="fill:#8c8663" /><polygon
               points="69.5,69.9 69,70.4 69,71.6 69.5,72.1 "
               id="polygon908"
               style="fill:#b8af82" /><polygon
               points="67.8,71.6 69,71.6 69.5,72.1 67.3,72.1 "
               id="polygon910"
               style="fill:#80795b" /><polygon
               points="67.8,70.4 67.8,71.6 67.3,72.1 67.3,69.9 "
               id="polygon912"
               style="fill:#5e5b43" /><polygon
               points="69.5,69.9 69,70.4 67.8,70.4 67.3,69.9 "
               id="polygon914"
               style="fill:#9a916c" /></g><g
             id="g916"><rect
               width="2.3"
               height="2.3"
               x="67.300003"
               y="62.700001"
               id="rect918"
               style="fill:#8d8c8c" /><rect
               width="1.2"
               height="1.2"
               x="67.800003"
               y="63.200001"
               id="rect920"
               style="fill:#8c8663" /><polygon
               points="69.5,62.7 69,63.2 69,64.4 69.5,64.9 "
               id="polygon922"
               style="fill:#b8af82" /><polygon
               points="67.8,64.4 69,64.4 69.5,64.9 67.3,64.9 "
               id="polygon924"
               style="fill:#80795b" /><polygon
               points="67.8,63.2 67.8,64.4 67.3,64.9 67.3,62.7 "
               id="polygon926"
               style="fill:#5e5b43" /><polygon
               points="69.5,62.7 69,63.2 67.8,63.2 67.3,62.7 "
               id="polygon928"
               style="fill:#9a916c" /></g><g
             id="g930"><rect
               width="2.3"
               height="2.3"
               x="67.300003"
               y="55.5"
               id="rect932"
               style="fill:#8d8c8c" /><rect
               width="1.2"
               height="1.2"
               x="67.800003"
               y="56"
               id="rect934"
               style="fill:#8c8663" /><polygon
               points="69.5,55.5 69,56 69,57.2 69.5,57.7 "
               id="polygon936"
               style="fill:#b8af82" /><polygon
               points="67.8,57.2 69,57.2 69.5,57.7 67.3,57.7 "
               id="polygon938"
               style="fill:#80795b" /><polygon
               points="67.8,56 67.8,57.2 67.3,57.7 67.3,55.5 "
               id="polygon940"
               style="fill:#5e5b43" /><polygon
               points="69.5,55.5 69,56 67.8,56 67.3,55.5 "
               id="polygon942"
               style="fill:#9a916c" /></g><g
             id="g944"><rect
               width="2.3"
               height="2.3"
               x="67.300003"
               y="48.299999"
               id="rect946"
               style="fill:#8d8c8c" /><rect
               width="1.2"
               height="1.2"
               x="67.800003"
               y="48.799999"
               id="rect948"
               style="fill:#8c8663" /><polygon
               points="69.5,48.3 69,48.8 69,50 69.5,50.5 "
               id="polygon950"
               style="fill:#b8af82" /><polygon
               points="67.8,50 69,50 69.5,50.5 67.3,50.5 "
               id="polygon952"
               style="fill:#80795b" /><polygon
               points="67.8,48.8 67.8,50 67.3,50.5 67.3,48.3 "
               id="polygon954"
               style="fill:#5e5b43" /><polygon
               points="69.5,48.3 69,48.8 67.8,48.8 67.3,48.3 "
               id="polygon956"
               style="fill:#9a916c" /></g><g
             id="g958"><rect
               width="2.3"
               height="2.3"
               x="67.300003"
               y="41.099998"
               id="rect960"
               style="fill:#8d8c8c" /><rect
               width="1.2"
               height="1.2"
               x="67.800003"
               y="41.599998"
               id="rect962"
               style="fill:#8c8663" /><polygon
               points="69.5,41.1 69,41.6 69,42.8 69.5,43.3 "
               id="polygon964"
               style="fill:#b8af82" /><polygon
               points="67.8,42.8 69,42.8 69.5,43.3 67.3,43.3 "
               id="polygon966"
               style="fill:#80795b" /><polygon
               points="67.8,41.6 67.8,42.8 67.3,43.3 67.3,41.1 "
               id="polygon968"
               style="fill:#5e5b43" /><polygon
               points="69.5,41.1 69,41.6 67.8,41.6 67.3,41.1 "
               id="polygon970"
               style="fill:#9a916c" /></g><g
             id="g972"><rect
               width="2.3"
               height="2.3"
               x="67.300003"
               y="33.900002"
               id="rect974"
               style="fill:#8d8c8c" /><rect
               width="1.2"
               height="1.2"
               x="67.800003"
               y="34.400002"
               id="rect976"
               style="fill:#8c8663" /><polygon
               points="69.5,33.9 69,34.4 69,35.6 69.5,36.1 "
               id="polygon978"
               style="fill:#b8af82" /><polygon
               points="67.8,35.6 69,35.6 69.5,36.1 67.3,36.1 "
               id="polygon980"
               style="fill:#80795b" /><polygon
               points="67.8,34.4 67.8,35.6 67.3,36.1 67.3,33.9 "
               id="polygon982"
               style="fill:#5e5b43" /><polygon
               points="69.5,33.9 69,34.4 67.8,34.4 67.3,33.9 "
               id="polygon984"
               style="fill:#9a916c" /></g><g
             id="g986"><rect
               width="2.3"
               height="2.3"
               x="67.300003"
               y="26.700001"
               id="rect988"
               style="fill:#8d8c8c" /><rect
               width="1.2"
               height="1.2"
               x="67.800003"
               y="27.200001"
               id="rect990"
               style="fill:#8c8663" /><polygon
               points="69.5,26.7 69,27.2 69,28.4 69.5,29 "
               id="polygon992"
               style="fill:#b8af82" /><polygon
               points="67.8,28.4 69,28.4 69.5,29 67.3,29 "
               id="polygon994"
               style="fill:#80795b" /><polygon
               points="67.8,27.2 67.8,28.4 67.3,29 67.3,26.7 "
               id="polygon996"
               style="fill:#5e5b43" /><polygon
               points="69.5,26.7 69,27.2 67.8,27.2 67.3,26.7 "
               id="polygon998"
               style="fill:#9a916c" /></g><g
             id="g1000"><rect
               width="2.3"
               height="2.3"
               x="67.300003"
               y="19.5"
               id="rect1002"
               style="fill:#8d8c8c" /><rect
               width="1.2"
               height="1.2"
               x="67.800003"
               y="20"
               id="rect1004"
               style="fill:#8c8663" /><polygon
               points="69.5,19.5 69,20 69,21.2 69.5,21.7 "
               id="polygon1006"
               style="fill:#b8af82" /><polygon
               points="67.8,21.2 69,21.2 69.5,21.7 67.3,21.7 "
               id="polygon1008"
               style="fill:#80795b" /><polygon
               points="67.8,20 67.8,21.2 67.3,21.7 67.3,19.5 "
               id="polygon1010"
               style="fill:#5e5b43" /><polygon
               points="69.5,19.5 69,20 67.8,20 67.3,19.5 "
               id="polygon1012"
               style="fill:#9a916c" /></g></g></g></g></g></svg>